M48
METRIC,LZ,000.000
;FILE_FORMAT=3:3
;TYPE=PLATED
;Layer: PTH_Through
;EasyEDA v6.5.44, 2024-07-11 22:25:44
;45d6b8aa582043f790635ab3bd24865d,c9b9c57424e64463a8e00cf53a76285a,10
;Gerber Generator version 0.2
;Holesize 1 = 0.406 mm
T01C0.406
;Holesize 2 = 0.701 mm
T02C0.701
;Holesize 3 = 0.800 mm
T03C0.800
;Holesize 4 = 0.901 mm
T04C0.901
;Holesize 5 = 0.915 mm
T05C0.915
;Holesize 6 = 0.916 mm
T06C0.916
;Holesize 7 = 1.000 mm
T07C1.000
;Holesize 8 = 1.101 mm
T08C1.101
;Holesize 9 = 1.200 mm
T09C1.200
;Holesize 10 = 1.501 mm
T10C1.501
%
G05
G90
T01
X034499Y045189
X073751Y071882
X049039Y071882
X034620Y055420
X045774Y055420
X034910Y061296
X037456Y060570
T02
X039454Y066675
X049954Y066675
T03
X027686Y063627
X027686Y068707
X033909Y063754
X033909Y068834
X021971Y063627
X021971Y068707
X064643Y065548
X064643Y067548
T04
X052324Y081534
X049784Y081534
X047244Y081534
X044704Y081534
X042164Y081534
X039624Y081534
X037084Y081534
X034544Y081534
X052324Y073914
X049784Y073914
X047244Y073914
X044704Y073914
X042164Y073914
X039624Y073914
X037084Y073914
X034544Y073914
X075311Y081661
X072771Y081661
X070231Y081661
X067691Y081661
X065151Y081661
X062611Y081661
X060071Y081661
X057531Y081661
X075311Y074041
X072771Y074041
X070231Y074041
X067691Y074041
X065151Y074041
X062611Y074041
X060071Y074041
X057531Y074041
X029464Y081534
X026924Y081534
X024384Y081534
X021844Y081534
X019304Y081534
X016764Y081534
X014224Y081534
X011684Y081534
X029464Y073914
X026924Y073914
X024384Y073914
X021844Y073914
X019304Y073914
X016764Y073914
X014224Y073914
X011684Y073914
T05
X054991Y042794
X057531Y042794
X060071Y042794
X062611Y042794
X065151Y042794
X067691Y042794
X070231Y042794
X072771Y042794
X052451Y042794
X049911Y042794
X047371Y042794
X044831Y042794
X042291Y042794
X039751Y042794
X037338Y058044
X039878Y058044
X042418Y058044
X044958Y058044
X047498Y058044
X050038Y058044
X052578Y058044
X072898Y058044
X070358Y058044
X067818Y058044
X065278Y058044
X062738Y058044
X060198Y058044
X057658Y058044
X055118Y058044
T06
X037211Y042794
T07
X056388Y065405
X056388Y067945
T08
X011938Y049403
X011938Y051943
X011938Y054483
X011938Y057023
X011938Y059563
X011938Y062103
X011938Y064643
X011938Y067183
X011938Y044450
X014478Y044450
X017018Y044450
X019558Y044450
X022098Y044450
X024638Y044450
X027178Y044450
X029718Y044450
T09
X038354Y087503
X040894Y087503
X043434Y087503
X045974Y087503
X048514Y087503
X061087Y087503
X063627Y087503
X066167Y087503
X068707Y087503
X071247Y087503
X015494Y087503
X018034Y087503
X020574Y087503
X023114Y087503
X025654Y087503
T10
X072898Y063413
X072898Y068413
M30
