G04 Layer: BottomSilkscreenLayer*
G04 EasyEDA v6.5.44, 2024-07-11 22:25:44*
G04 45d6b8aa582043f790635ab3bd24865d,c9b9c57424e64463a8e00cf53a76285a,10*
G04 Gerber Generator version 0.2*
G04 Scale: 100 percent, Rotated: No, Reflected: No *
G04 Dimensions in millimeters *
G04 leading zeros omitted , absolute positions ,4 integer and 5 decimal *
%FSLAX45Y45*%
%MOMM*%

%ADD10C,0.2032*%

%LPD*%
D10*
X7168946Y5548863D02*
G01*
X7264400Y5405681D01*
X7264400Y5548863D02*
G01*
X7168946Y5548863D01*
X7264400Y5405681D02*
G01*
X7168946Y5405681D01*
X6964400Y5548863D02*
G01*
X7018947Y5405681D01*
X6964400Y5548863D02*
G01*
X6909854Y5405681D01*
X6998492Y5453407D02*
G01*
X6930308Y5453407D01*
X6864855Y5501137D02*
G01*
X6789854Y5405681D01*
X6789854Y5501137D02*
G01*
X6864855Y5405681D01*
X6744855Y5548863D02*
G01*
X6738038Y5542046D01*
X6731218Y5548863D01*
X6738038Y5555681D01*
X6744855Y5548863D01*
X6738038Y5501137D02*
G01*
X6738038Y5405681D01*
X6611218Y5480682D02*
G01*
X6618038Y5494317D01*
X6638493Y5501137D01*
X6658947Y5501137D01*
X6679399Y5494317D01*
X6686219Y5480682D01*
X6679399Y5467045D01*
X6665765Y5460227D01*
X6631673Y5453407D01*
X6618038Y5446590D01*
X6611218Y5432953D01*
X6611218Y5426135D01*
X6618038Y5412498D01*
X6638493Y5405681D01*
X6658947Y5405681D01*
X6679399Y5412498D01*
X6686219Y5426135D01*
X7251700Y5307563D02*
G01*
X7251700Y5164381D01*
X7206700Y5307563D02*
G01*
X7206700Y5164381D01*
X7206700Y5307563D02*
G01*
X7111245Y5164381D01*
X7111245Y5307563D02*
G01*
X7111245Y5164381D01*
X7066246Y5280291D02*
G01*
X7052609Y5287109D01*
X7032155Y5307563D01*
X7032155Y5164381D01*
X6882155Y5225745D02*
G01*
X6759427Y5225745D01*
X6609427Y5307563D02*
G01*
X6609427Y5164381D01*
X6609427Y5307563D02*
G01*
X6561701Y5307563D01*
X6541246Y5300746D01*
X6527609Y5287109D01*
X6520792Y5273471D01*
X6513974Y5253017D01*
X6513974Y5218927D01*
X6520792Y5198473D01*
X6527609Y5184835D01*
X6541246Y5171199D01*
X6561701Y5164381D01*
X6609427Y5164381D01*
X6434884Y5307563D02*
G01*
X6455338Y5300746D01*
X6462156Y5287109D01*
X6462156Y5273471D01*
X6455338Y5259837D01*
X6441701Y5253017D01*
X6414429Y5246199D01*
X6393975Y5239382D01*
X6380337Y5225745D01*
X6373520Y5212107D01*
X6373520Y5191653D01*
X6380337Y5178018D01*
X6387155Y5171199D01*
X6407609Y5164381D01*
X6434884Y5164381D01*
X6455338Y5171199D01*
X6462156Y5178018D01*
X6468973Y5191653D01*
X6468973Y5212107D01*
X6462156Y5225745D01*
X6448518Y5239382D01*
X6428064Y5246199D01*
X6400792Y5253017D01*
X6387155Y5259837D01*
X6380337Y5273471D01*
X6380337Y5287109D01*
X6387155Y5300746D01*
X6407609Y5307563D01*
X6434884Y5307563D01*
X7264400Y5104363D02*
G01*
X7264400Y4961181D01*
X7219400Y5104363D02*
G01*
X7219400Y4961181D01*
X7219400Y5104363D02*
G01*
X7123945Y4961181D01*
X7123945Y5104363D02*
G01*
X7123945Y4961181D01*
X7072127Y5070271D02*
G01*
X7072127Y5077091D01*
X7065309Y5090726D01*
X7058492Y5097546D01*
X7044855Y5104363D01*
X7017583Y5104363D01*
X7003945Y5097546D01*
X6997128Y5090726D01*
X6990308Y5077091D01*
X6990308Y5063454D01*
X6997128Y5049817D01*
X7010763Y5029362D01*
X7078946Y4961181D01*
X6983491Y4961181D01*
X6833491Y5022545D02*
G01*
X6710763Y5022545D01*
X6560764Y5104363D02*
G01*
X6560764Y4961181D01*
X6560764Y5104363D02*
G01*
X6513037Y5104363D01*
X6492582Y5097546D01*
X6478948Y5083909D01*
X6472128Y5070271D01*
X6465310Y5049817D01*
X6465310Y5015727D01*
X6472128Y4995273D01*
X6478948Y4981635D01*
X6492582Y4967999D01*
X6513037Y4961181D01*
X6560764Y4961181D01*
X6331673Y5056637D02*
G01*
X6338493Y5036182D01*
X6352128Y5022545D01*
X6372583Y5015727D01*
X6379400Y5015727D01*
X6399855Y5022545D01*
X6413492Y5036182D01*
X6420309Y5056637D01*
X6420309Y5063454D01*
X6413492Y5083909D01*
X6399855Y5097546D01*
X6379400Y5104363D01*
X6372583Y5104363D01*
X6352128Y5097546D01*
X6338493Y5083909D01*
X6331673Y5056637D01*
X6331673Y5022545D01*
X6338493Y4988453D01*
X6352128Y4967999D01*
X6372583Y4961181D01*
X6386220Y4961181D01*
X6406675Y4967999D01*
X6413492Y4981635D01*
X7264400Y4888463D02*
G01*
X7264400Y4745281D01*
X7219401Y4888463D02*
G01*
X7219401Y4745281D01*
X7219401Y4888463D02*
G01*
X7123945Y4745281D01*
X7123945Y4888463D02*
G01*
X7123945Y4745281D01*
X7065309Y4888463D02*
G01*
X6990308Y4888463D01*
X7031217Y4833917D01*
X7010763Y4833917D01*
X6997128Y4827099D01*
X6990308Y4820282D01*
X6983491Y4799827D01*
X6983491Y4786190D01*
X6990308Y4765735D01*
X7003945Y4752098D01*
X7024400Y4745281D01*
X7044855Y4745281D01*
X7065309Y4752098D01*
X7072127Y4758918D01*
X7078946Y4772553D01*
X6833491Y4806645D02*
G01*
X6710763Y4806645D01*
X6560764Y4888463D02*
G01*
X6560764Y4745281D01*
X6560764Y4888463D02*
G01*
X6513037Y4888463D01*
X6492582Y4881646D01*
X6478948Y4868009D01*
X6472128Y4854371D01*
X6465310Y4833917D01*
X6465310Y4799827D01*
X6472128Y4779373D01*
X6478948Y4765735D01*
X6492582Y4752098D01*
X6513037Y4745281D01*
X6560764Y4745281D01*
X6420309Y4861191D02*
G01*
X6406675Y4868009D01*
X6386220Y4888463D01*
X6386220Y4745281D01*
X6334401Y4854371D02*
G01*
X6334401Y4861191D01*
X6327584Y4874826D01*
X6320764Y4881646D01*
X6307129Y4888463D01*
X6279855Y4888463D01*
X6266220Y4881646D01*
X6259400Y4874826D01*
X6252583Y4861191D01*
X6252583Y4847554D01*
X6259400Y4833917D01*
X6273038Y4813462D01*
X6341219Y4745281D01*
X6245766Y4745281D01*
X7264400Y4672563D02*
G01*
X7264400Y4529381D01*
X7219401Y4672563D02*
G01*
X7219401Y4529381D01*
X7219401Y4672563D02*
G01*
X7123945Y4529381D01*
X7123945Y4672563D02*
G01*
X7123945Y4529381D01*
X7010763Y4672563D02*
G01*
X7078946Y4577107D01*
X6976673Y4577107D01*
X7010763Y4672563D02*
G01*
X7010763Y4529381D01*
X6826674Y4590745D02*
G01*
X6703946Y4590745D01*
X6553946Y4672563D02*
G01*
X6553946Y4529381D01*
X6553946Y4672563D02*
G01*
X6506220Y4672563D01*
X6485765Y4665746D01*
X6472128Y4652109D01*
X6465310Y4638471D01*
X6458493Y4618017D01*
X6458493Y4583927D01*
X6465310Y4563473D01*
X6472128Y4549835D01*
X6485765Y4536198D01*
X6506220Y4529381D01*
X6553946Y4529381D01*
X6413492Y4645291D02*
G01*
X6399855Y4652109D01*
X6379400Y4672563D01*
X6379400Y4529381D01*
X6320764Y4672563D02*
G01*
X6245766Y4672563D01*
X6286675Y4618017D01*
X6266220Y4618017D01*
X6252583Y4611199D01*
X6245766Y4604382D01*
X6238948Y4583927D01*
X6238948Y4570290D01*
X6245766Y4549835D01*
X6259400Y4536198D01*
X6279855Y4529381D01*
X6300309Y4529381D01*
X6320764Y4536198D01*
X6327584Y4543018D01*
X6334401Y4556653D01*
X4914900Y5523463D02*
G01*
X4819446Y5380281D01*
X4819446Y5523463D02*
G01*
X4914900Y5380281D01*
X4614900Y5523463D02*
G01*
X4669447Y5380281D01*
X4614900Y5523463D02*
G01*
X4560354Y5380281D01*
X4648992Y5428007D02*
G01*
X4580808Y5428007D01*
X4515355Y5475737D02*
G01*
X4440354Y5380281D01*
X4440354Y5475737D02*
G01*
X4515355Y5380281D01*
X4395355Y5523463D02*
G01*
X4388538Y5516646D01*
X4381718Y5523463D01*
X4388538Y5530281D01*
X4395355Y5523463D01*
X4388538Y5475737D02*
G01*
X4388538Y5380281D01*
X4261718Y5455282D02*
G01*
X4268538Y5468917D01*
X4288993Y5475737D01*
X4309447Y5475737D01*
X4329899Y5468917D01*
X4336719Y5455282D01*
X4329899Y5441645D01*
X4316265Y5434827D01*
X4282173Y5428007D01*
X4268538Y5421190D01*
X4261718Y5407553D01*
X4261718Y5400735D01*
X4268538Y5387098D01*
X4288993Y5380281D01*
X4309447Y5380281D01*
X4329899Y5387098D01*
X4336719Y5400735D01*
X4902200Y5294863D02*
G01*
X4902200Y5151681D01*
X4857201Y5294863D02*
G01*
X4857201Y5151681D01*
X4857201Y5294863D02*
G01*
X4761745Y5151681D01*
X4761745Y5294863D02*
G01*
X4761745Y5151681D01*
X4716746Y5267591D02*
G01*
X4703109Y5274409D01*
X4682655Y5294863D01*
X4682655Y5151681D01*
X4532655Y5213045D02*
G01*
X4409927Y5213045D01*
X4259927Y5294863D02*
G01*
X4259927Y5151681D01*
X4259927Y5294863D02*
G01*
X4212201Y5294863D01*
X4191746Y5288046D01*
X4178109Y5274409D01*
X4171292Y5260771D01*
X4164474Y5240317D01*
X4164474Y5206227D01*
X4171292Y5185773D01*
X4178109Y5172135D01*
X4191746Y5158498D01*
X4212201Y5151681D01*
X4259927Y5151681D01*
X4112656Y5260771D02*
G01*
X4112656Y5267591D01*
X4105838Y5281226D01*
X4099018Y5288046D01*
X4085384Y5294863D01*
X4058109Y5294863D01*
X4044475Y5288046D01*
X4037655Y5281226D01*
X4030837Y5267591D01*
X4030837Y5253954D01*
X4037655Y5240317D01*
X4051292Y5219862D01*
X4119473Y5151681D01*
X4024020Y5151681D01*
X4902200Y5091663D02*
G01*
X4902200Y4948481D01*
X4857200Y5091663D02*
G01*
X4857200Y4948481D01*
X4857200Y5091663D02*
G01*
X4761745Y4948481D01*
X4761745Y5091663D02*
G01*
X4761745Y4948481D01*
X4709927Y5057571D02*
G01*
X4709927Y5064391D01*
X4703109Y5078026D01*
X4696292Y5084846D01*
X4682655Y5091663D01*
X4655383Y5091663D01*
X4641745Y5084846D01*
X4634928Y5078026D01*
X4628108Y5064391D01*
X4628108Y5050754D01*
X4634928Y5037117D01*
X4648563Y5016662D01*
X4716746Y4948481D01*
X4621291Y4948481D01*
X4471291Y5009845D02*
G01*
X4348563Y5009845D01*
X4198564Y5091663D02*
G01*
X4198564Y4948481D01*
X4198564Y5091663D02*
G01*
X4150837Y5091663D01*
X4130382Y5084846D01*
X4116748Y5071209D01*
X4109928Y5057571D01*
X4103110Y5037117D01*
X4103110Y5003027D01*
X4109928Y4982573D01*
X4116748Y4968935D01*
X4130382Y4955299D01*
X4150837Y4948481D01*
X4198564Y4948481D01*
X4044475Y5091663D02*
G01*
X3969473Y5091663D01*
X4010383Y5037117D01*
X3989928Y5037117D01*
X3976293Y5030299D01*
X3969473Y5023482D01*
X3962656Y5003027D01*
X3962656Y4989390D01*
X3969473Y4968935D01*
X3983111Y4955299D01*
X4003565Y4948481D01*
X4024020Y4948481D01*
X4044475Y4955299D01*
X4051292Y4962118D01*
X4058109Y4975753D01*
X4914900Y4888463D02*
G01*
X4914900Y4745281D01*
X4869900Y4888463D02*
G01*
X4869900Y4745281D01*
X4869900Y4888463D02*
G01*
X4774445Y4745281D01*
X4774445Y4888463D02*
G01*
X4774445Y4745281D01*
X4715809Y4888463D02*
G01*
X4640808Y4888463D01*
X4681717Y4833917D01*
X4661263Y4833917D01*
X4647628Y4827099D01*
X4640808Y4820282D01*
X4633991Y4799827D01*
X4633991Y4786190D01*
X4640808Y4765735D01*
X4654445Y4752099D01*
X4674900Y4745281D01*
X4695355Y4745281D01*
X4715809Y4752099D01*
X4722627Y4758918D01*
X4729446Y4772553D01*
X4483991Y4806645D02*
G01*
X4361263Y4806645D01*
X4211264Y4888463D02*
G01*
X4211264Y4745281D01*
X4211264Y4888463D02*
G01*
X4163537Y4888463D01*
X4143082Y4881646D01*
X4129448Y4868009D01*
X4122628Y4854371D01*
X4115810Y4833917D01*
X4115810Y4799827D01*
X4122628Y4779373D01*
X4129448Y4765735D01*
X4143082Y4752099D01*
X4163537Y4745281D01*
X4211264Y4745281D01*
X4002628Y4888463D02*
G01*
X4070809Y4793007D01*
X3968539Y4793007D01*
X4002628Y4888463D02*
G01*
X4002628Y4745281D01*
X4927600Y4672563D02*
G01*
X4927600Y4529381D01*
X4882600Y4672563D02*
G01*
X4882600Y4529381D01*
X4882600Y4672563D02*
G01*
X4787145Y4529381D01*
X4787145Y4672563D02*
G01*
X4787145Y4529381D01*
X4673963Y4672563D02*
G01*
X4742146Y4577107D01*
X4639873Y4577107D01*
X4673963Y4672563D02*
G01*
X4673963Y4529381D01*
X4489874Y4590745D02*
G01*
X4367146Y4590745D01*
X4217146Y4672563D02*
G01*
X4217146Y4529381D01*
X4217146Y4672563D02*
G01*
X4169420Y4672563D01*
X4148965Y4665746D01*
X4135328Y4652109D01*
X4128510Y4638471D01*
X4121693Y4618017D01*
X4121693Y4583927D01*
X4128510Y4563473D01*
X4135328Y4549835D01*
X4148965Y4536199D01*
X4169420Y4529381D01*
X4217146Y4529381D01*
X3994873Y4672563D02*
G01*
X4063055Y4672563D01*
X4069875Y4611199D01*
X4063055Y4618017D01*
X4042600Y4624837D01*
X4022148Y4624837D01*
X4001693Y4618017D01*
X3988056Y4604382D01*
X3981239Y4583927D01*
X3981239Y4570290D01*
X3988056Y4549835D01*
X4001693Y4536199D01*
X4022148Y4529381D01*
X4042600Y4529381D01*
X4063055Y4536199D01*
X4069875Y4543018D01*
X4076692Y4556653D01*
X2565400Y5523463D02*
G01*
X2510853Y5455282D01*
X2510853Y5380281D01*
X2456309Y5523463D02*
G01*
X2510853Y5455282D01*
X2251763Y5523463D02*
G01*
X2306309Y5380281D01*
X2251763Y5523463D02*
G01*
X2197219Y5380281D01*
X2285855Y5428007D02*
G01*
X2217674Y5428007D01*
X2152218Y5475737D02*
G01*
X2077219Y5380281D01*
X2077219Y5475737D02*
G01*
X2152218Y5380281D01*
X2032218Y5523463D02*
G01*
X2025401Y5516646D01*
X2018583Y5523463D01*
X2025401Y5530281D01*
X2032218Y5523463D01*
X2025401Y5475737D02*
G01*
X2025401Y5380281D01*
X1898583Y5455282D02*
G01*
X1905401Y5468917D01*
X1925855Y5475737D01*
X1946310Y5475737D01*
X1966765Y5468917D01*
X1973582Y5455282D01*
X1966765Y5441645D01*
X1953127Y5434827D01*
X1919038Y5428007D01*
X1905401Y5421190D01*
X1898583Y5407553D01*
X1898583Y5400735D01*
X1905401Y5387099D01*
X1925855Y5380281D01*
X1946310Y5380281D01*
X1966765Y5387099D01*
X1973582Y5400735D01*
X2540000Y5294863D02*
G01*
X2540000Y5151681D01*
X2495000Y5294863D02*
G01*
X2495000Y5151681D01*
X2495000Y5294863D02*
G01*
X2399545Y5151681D01*
X2399545Y5294863D02*
G01*
X2399545Y5151681D01*
X2354546Y5267591D02*
G01*
X2340909Y5274409D01*
X2320455Y5294863D01*
X2320455Y5151681D01*
X2170455Y5213045D02*
G01*
X2047727Y5213045D01*
X1843184Y5294863D02*
G01*
X1897727Y5151681D01*
X1843184Y5294863D02*
G01*
X1788637Y5151681D01*
X1877273Y5199407D02*
G01*
X1809092Y5199407D01*
X1730001Y5294863D02*
G01*
X1655000Y5294863D01*
X1695909Y5240317D01*
X1675455Y5240317D01*
X1661820Y5233499D01*
X1655000Y5226682D01*
X1648183Y5206227D01*
X1648183Y5192590D01*
X1655000Y5172135D01*
X1668637Y5158499D01*
X1689092Y5151681D01*
X1709546Y5151681D01*
X1730001Y5158499D01*
X1736818Y5165318D01*
X1743638Y5178953D01*
X2540000Y5091663D02*
G01*
X2540000Y4948481D01*
X2495001Y5091663D02*
G01*
X2495001Y4948481D01*
X2495001Y5091663D02*
G01*
X2399545Y4948481D01*
X2399545Y5091663D02*
G01*
X2399545Y4948481D01*
X2347727Y5057571D02*
G01*
X2347727Y5064391D01*
X2340909Y5078026D01*
X2334092Y5084846D01*
X2320455Y5091663D01*
X2293183Y5091663D01*
X2279545Y5084846D01*
X2272728Y5078026D01*
X2265908Y5064391D01*
X2265908Y5050754D01*
X2272728Y5037117D01*
X2286363Y5016662D01*
X2354546Y4948481D01*
X2259091Y4948481D01*
X2109091Y5009845D02*
G01*
X1986363Y5009845D01*
X1781820Y5091663D02*
G01*
X1836364Y4948481D01*
X1781820Y5091663D02*
G01*
X1727273Y4948481D01*
X1815909Y4996207D02*
G01*
X1747728Y4996207D01*
X1675455Y5057571D02*
G01*
X1675455Y5064391D01*
X1668637Y5078026D01*
X1661820Y5084846D01*
X1648183Y5091663D01*
X1620911Y5091663D01*
X1607273Y5084846D01*
X1600456Y5078026D01*
X1593639Y5064391D01*
X1593639Y5050754D01*
X1600456Y5037117D01*
X1614093Y5016662D01*
X1682275Y4948481D01*
X1586819Y4948481D01*
X2540000Y4901163D02*
G01*
X2540000Y4757981D01*
X2495001Y4901163D02*
G01*
X2495001Y4757981D01*
X2495001Y4901163D02*
G01*
X2399545Y4757981D01*
X2399545Y4901163D02*
G01*
X2399545Y4757981D01*
X2340909Y4901163D02*
G01*
X2265908Y4901163D01*
X2306817Y4846617D01*
X2286363Y4846617D01*
X2272728Y4839799D01*
X2265908Y4832982D01*
X2259091Y4812527D01*
X2259091Y4798890D01*
X2265908Y4778435D01*
X2279545Y4764798D01*
X2300000Y4757981D01*
X2320455Y4757981D01*
X2340909Y4764798D01*
X2347727Y4771618D01*
X2354546Y4785253D01*
X2109091Y4819345D02*
G01*
X1986363Y4819345D01*
X1781820Y4901163D02*
G01*
X1836364Y4757981D01*
X1781820Y4901163D02*
G01*
X1727273Y4757981D01*
X1815909Y4805707D02*
G01*
X1747728Y4805707D01*
X1682275Y4873891D02*
G01*
X1668637Y4880709D01*
X1648183Y4901163D01*
X1648183Y4757981D01*
X2540000Y4710663D02*
G01*
X2540000Y4567481D01*
X2495000Y4710663D02*
G01*
X2495000Y4567481D01*
X2495000Y4710663D02*
G01*
X2399545Y4567481D01*
X2399545Y4710663D02*
G01*
X2399545Y4567481D01*
X2286363Y4710663D02*
G01*
X2354546Y4615207D01*
X2252273Y4615207D01*
X2286363Y4710663D02*
G01*
X2286363Y4567481D01*
X2102274Y4628845D02*
G01*
X1979546Y4628845D01*
X1775000Y4710663D02*
G01*
X1829546Y4567481D01*
X1775000Y4710663D02*
G01*
X1720456Y4567481D01*
X1809092Y4615207D02*
G01*
X1740910Y4615207D01*
X1634548Y4710663D02*
G01*
X1655000Y4703846D01*
X1668637Y4683391D01*
X1675455Y4649299D01*
X1675455Y4628845D01*
X1668637Y4594753D01*
X1655000Y4574299D01*
X1634548Y4567481D01*
X1620911Y4567481D01*
X1600456Y4574299D01*
X1586819Y4594753D01*
X1580001Y4628845D01*
X1580001Y4649299D01*
X1586819Y4683391D01*
X1600456Y4703846D01*
X1620911Y4710663D01*
X1634548Y4710663D01*
M02*
