<?xml version="1.0" encoding="UTF-8" standalone="no"?>
<svg
   xmlns:dc="http://purl.org/dc/elements/1.1/"
   xmlns:cc="http://creativecommons.org/ns#"
   xmlns:rdf="http://www.w3.org/1999/02/22-rdf-syntax-ns#"
   xmlns:svg="http://www.w3.org/2000/svg"
   xmlns="http://www.w3.org/2000/svg"
   xmlns:sodipodi="http://sodipodi.sourceforge.net/DTD/sodipodi-0.dtd"
   xmlns:inkscape="http://www.inkscape.org/namespaces/inkscape"
   width="8cm"
   height="8.6999998cm"
   viewBox="0 0 80 86.999996"
   version="1.1"
   id="svg8"
   inkscape:version="1.0.1 (3bc2e813f5, 2020-09-07)"
   sodipodi:docname="drawing-2.svg">
  <defs
     id="defs2" />
  <sodipodi:namedview
     id="base"
     pagecolor="#ffffff"
     bordercolor="#666666"
     borderopacity="1.0"
     inkscape:pageopacity="0.0"
     inkscape:pageshadow="2"
     inkscape:zoom="1.979899"
     inkscape:cx="239.06107"
     inkscape:cy="185.52311"
     inkscape:document-units="mm"
     inkscape:current-layer="layer1"
     inkscape:document-rotation="0"
     showgrid="false"
     units="cm"
     inkscape:window-width="1920"
     inkscape:window-height="1013"
     inkscape:window-x="-9"
     inkscape:window-y="-9"
     inkscape:window-maximized="1" />
  <metadata
     id="metadata5">
    <rdf:RDF>
      <cc:Work
         rdf:about="">
        <dc:format>image/svg+xml</dc:format>
        <dc:type
           rdf:resource="http://purl.org/dc/dcmitype/StillImage" />
        <dc:title></dc:title>
      </cc:Work>
    </rdf:RDF>
  </metadata>
  <g
     inkscape:label="Layer 1"
     inkscape:groupmode="layer"
     id="layer1">
    <path
       style="fill:#000000;stroke-width:0.264583"
       d="m 12.42246,83.950992 c -0.984838,-0.774674 -0.984838,-2.36192 0,-3.136593 0.652817,-0.513506 1.035511,-0.54836 6.019271,-0.548209 l 5.322131,1.64e-4 -0.07876,-9.560835 -0.07875,-9.560832 0.587896,-0.625787 c 0.323342,-0.344184 0.452049,-0.625787 0.286012,-0.625787 -0.166037,0 -0.722572,-0.420688 -1.236747,-0.934861 l -0.93486,-0.934863 v 0.679075 c 0,0.373491 -0.297657,1.26647 -0.661459,1.984398 -0.822211,1.622555 -0.828285,2.192359 -0.03474,3.258799 0.87086,1.170342 1.042291,2.119366 0.58189,3.221265 -0.483805,1.157904 -1.068919,1.19172 -2.394371,0.138385 -0.546668,-0.434438 -1.109534,-0.718447 -1.250814,-0.631132 -0.153495,0.09487 -0.186633,0.865286 -0.08234,1.914367 0.156122,1.570418 0.114187,1.820007 -0.397546,2.366131 -1.335893,1.425673 -3.406429,-0.403989 -3.639642,-3.216227 -0.105485,-1.272014 -0.01109,-1.626386 0.837359,-3.143554 0.525935,-0.940462 0.956246,-1.880439 0.956246,-2.088841 0,-0.208401 -0.423591,-1.2628 -0.941314,-2.343107 -1.002994,-2.092897 -1.034975,-2.95356 -0.127793,-3.43907 0.495303,-0.265078 0.49085,-0.295386 -0.135416,-0.921652 l -0.64756,-0.64756 v -7.548478 -7.548477 l 0.76621,-0.857536 c 0.714765,-0.799962 0.901033,-0.864346 2.774268,-0.95894 1.64096,-0.08286 2.197679,-0.0026 3.045296,0.439235 l 1.037236,0.540636 0.308761,-0.745413 c 0.389673,-0.940755 1.503313,-2.012876 2.470349,-2.378247 0.409654,-0.154779 1.39192,-0.281416 2.182812,-0.281416 h 1.437984 V 33.729404 31.642781 L 27.20259,31.464108 c -1.577676,-0.236588 -3.232455,-1.526064 -4.085741,-3.183787 -0.67483,-1.311034 -0.675905,-1.324261 -0.675905,-8.331932 0,-5.288549 0.08993,-7.273521 0.364787,-8.052024 0.489862,-1.387473 2.283436,-3.1324527 3.63466,-3.5361887 1.418487,-0.423834 28.297971,-0.464324 29.808301,-0.0449 1.26173,0.350383 2.69853,1.6012499 3.44794,3.0017477 0.54416,1.016926 0.58515,1.489137 0.66805,7.697967 0.0568,4.25564 -0.018,7.09767 -0.2097,7.969178 -0.51548,2.343007 -2.99701,4.575892 -5.10414,4.59272 l -0.72761,0.0058 v 2.116666 2.116667 h 1.53144 c 2.05071,0 3.64628,0.816165 4.39662,2.248958 0.30483,0.582084 0.56236,1.0863 0.57228,1.120479 0.01,0.03418 0.48159,-0.174181 1.04813,-0.463021 1.22587,-0.624983 3.68156,-0.704263 4.98215,-0.160843 1.66835,0.697085 1.79179,1.369097 1.70307,9.271262 -0.077,6.858968 -0.0901,7.005809 -0.6991,7.828883 l -0.62061,0.838806 0.55447,0.388366 c 0.76122,0.533177 0.69669,1.414618 -0.23928,3.268776 -1.01066,2.002099 -0.99857,2.835238 0.0662,4.560088 1.02548,1.661279 1.11171,3.200255 0.27079,4.83262 -1.08654,2.109131 -2.30002,2.520746 -3.33386,1.130842 -0.489,-0.65741 -0.50831,-0.843301 -0.21814,-2.100371 0.25725,-1.114464 0.2517,-1.445773 -0.0289,-1.726401 -0.28664,-0.286644 -0.50726,-0.210526 -1.26362,0.43597 -1.61744,1.382512 -2.63614,0.896327 -2.63614,-1.258138 0,-0.756484 0.21603,-1.311178 0.79375,-2.038152 0.43657,-0.549344 0.79259,-1.13126 0.79117,-1.293151 -10e-4,-0.161893 -0.31267,-0.949193 -0.69167,-1.749557 -0.379,-0.800365 -0.76479,-1.714138 -0.85731,-2.030603 -0.1656,-0.566402 -0.18209,-0.562981 -1.0551,0.218813 l -0.88687,0.794208 0.56875,0.605411 c 0.56345,0.599766 0.56802,0.694584 0.49,10.166244 l -0.0788,9.560835 5.32213,-1.64e-4 c 4.98376,-1.51e-4 5.36645,0.0347 6.01927,0.548209 0.53773,0.422978 0.69714,0.781589 0.69714,1.568296 0,0.786707 -0.15941,1.145318 -0.69714,1.568297 -0.67815,0.533436 -0.9776,0.548366 -10.99223,0.548366 h -10.2951 l -0.67661,-0.676607 c -0.57404,-0.574035 -0.64943,-0.824728 -0.49731,-1.653646 0.0986,-0.537369 0.1662,-1.393754 0.15018,-1.903076 -0.016,-0.509323 -0.0906,-4.746432 -0.16565,-9.415799 -0.11181,-6.952255 -0.0678,-8.689215 0.24292,-9.591145 l 0.37946,-1.101389 h -7.346436 -7.346439 l 0.37946,1.101389 c 0.31074,0.90193 0.354733,2.63889 0.242922,9.591145 -0.07509,4.669367 -0.149637,8.906476 -0.16565,9.415799 -0.01601,0.509322 0.05157,1.365707 0.150183,1.903076 0.152117,0.828918 0.07672,1.079611 -0.497311,1.653646 L 33.70983,84.49936 H 23.414694 c -10.014638,0 -10.314085,-0.0149 -10.992234,-0.548366 z m 21.308589,-0.683263 c 0.60039,-0.543343 0.615104,-1.095214 0.04597,-1.724096 -0.409348,-0.452324 -1.082887,-0.483855 -10.336144,-0.483855 -6.317147,0 -10.083417,0.09909 -10.410034,0.273892 -0.658512,0.352425 -0.690296,1.7125 -0.04875,2.086165 0.291408,0.16973 4.132722,0.272667 10.364063,0.277731 8.848875,0.0072 9.95246,-0.03849 10.384895,-0.429837 z m 36.484583,0.163991 c 0.32719,-0.175106 0.51177,-0.553463 0.51177,-1.049025 0,-0.495562 -0.18458,-0.873919 -0.51177,-1.049025 -0.32668,-0.174832 -4.09976,-0.273892 -10.43215,-0.273892 -8.66574,0 -9.97295,0.05258 -10.33614,0.415775 -0.22868,0.228674 -0.41577,0.636889 -0.41577,0.907142 0,0.270253 0.18709,0.678468 0.41577,0.907143 0.36319,0.36319 1.6704,0.415774 10.33614,0.415774 6.33239,0 10.10547,-0.09906 10.43215,-0.273892 z M 33.638895,77.932462 c -0.09238,-1.932271 -0.234045,-2.542553 -0.823772,-3.548848 -0.989293,-1.688103 -2.240844,-2.418522 -3.875003,-2.2615 -2.679443,0.257461 -4.008996,2.103649 -4.197681,5.82881 l -0.117263,2.315105 h 4.562644 4.562644 z m 24.865137,0.01847 c -0.13928,-2.749812 -0.76905,-4.204322 -2.25862,-5.216515 -2.00605,-1.363143 -4.45597,-0.668202 -5.81406,1.649204 -0.58973,1.006295 -0.73139,1.616578 -0.82377,3.548848 l -0.11157,2.333562 h 4.56264 4.56264 l -0.11726,-2.315107 z M 34.214903,68.227487 c 0,-8.49853 0.444842,-7.805208 -5.007879,-7.805208 h -3.949547 l -0.54837,0.69714 c -0.522094,0.663737 -0.547624,1.0092 -0.53281,7.209896 0.0123,5.149117 0.08155,6.407258 0.330729,6.008901 0.737497,-1.179017 1.953811,-2.377916 2.749934,-2.710558 1.025702,-0.428564 2.675488,-0.462746 3.699573,-0.07665 0.968052,0.364971 2.34506,1.702202 2.743592,2.664343 0.172915,0.417457 0.359481,0.759013 0.414586,0.759013 0.0551,0 0.100192,-3.036094 0.100192,-6.746875 z m 16.369459,4.531476 c 1.3049,-1.424908 3.56854,-1.898689 5.40515,-1.131305 0.79612,0.332642 2.01244,1.531541 2.74993,2.710558 0.24918,0.398357 0.31843,-0.859784 0.33073,-6.008901 0.0148,-6.200696 -0.0107,-6.546159 -0.53281,-7.209896 l -0.54837,-0.69714 h -3.94954 c -5.45765,0 -5.01062,-0.704122 -4.99729,7.871354 0.01,6.369433 0.0378,6.76134 0.42831,6.019271 0.22974,-0.436563 0.73099,-1.135835 1.11389,-1.553941 z M 17.486001,70.430765 c 0.212423,-0.212423 0.258894,-0.917977 0.147363,-2.237388 -0.160187,-1.895006 -0.151214,-1.932448 0.538432,-2.246672 0.627701,-0.285999 0.823721,-0.231656 1.867037,0.517596 0.641137,0.460431 1.235535,0.837145 1.320887,0.837145 0.08535,0 0.155184,-0.515028 0.155184,-1.144506 0,-0.878705 -0.153616,-1.288817 -0.661459,-1.765911 -0.879872,-0.826598 -0.874494,-2.243018 0.01519,-3.998717 0.413332,-0.81567 0.644994,-1.661673 0.595312,-2.174015 -0.07138,-0.736171 -0.194561,-0.854903 -1.007372,-0.971018 l -0.926041,-0.132291 -0.0751,-2.844271 -0.0751,-2.844271 h -0.90814 -0.908139 l -0.0751,2.844271 -0.0751,2.844271 -0.840192,0.08144 c -1.449303,0.140484 -1.524498,0.559991 -0.488034,2.722729 0.512243,1.068872 0.931351,2.232978 0.931351,2.5869 0,0.353923 -0.430583,1.413449 -0.956851,2.354506 -0.801116,1.432528 -0.935992,1.896078 -0.828687,2.848084 0.138878,1.232124 1.10177,3.032384 1.621909,3.032384 0.177309,0 0.461998,-0.139618 0.632643,-0.310264 z m 49.227281,-0.419767 c 0.2859,-0.401515 0.6604,-1.252095 0.83222,-1.890178 0.29832,-1.107881 0.26797,-1.244859 -0.67362,-3.040284 -1.1862,-2.261844 -1.20195,-3.030691 -0.10653,-5.200687 0.99918,-1.979382 0.9494,-2.457188 -0.27429,-2.63257 l -0.92304,-0.132291 -0.0751,-2.844271 -0.0751,-2.844271 h -1.04937 -1.04938 v 2.910417 2.910416 h -0.74084 c -1.56858,0 -1.71683,0.819171 -0.58229,3.217389 0.99021,2.093119 0.99023,2.548287 2.1e-4,3.794069 -0.80575,1.013902 -1.08359,2.567763 -0.52128,2.915288 0.14985,0.09262 0.68978,-0.198012 1.19983,-0.645843 1.12994,-0.992102 1.8132,-1.030779 2.39959,-0.135837 0.38174,0.582605 0.40134,0.865394 0.13884,2.002613 -0.49462,2.142797 0.42197,3.130198 1.50015,1.61604 z m -8.33063,-10.992156 c 0.40059,-0.26257 0.96034,-0.857882 1.24389,-1.322917 0.48282,-0.791842 0.51561,-1.387337 0.51654,-9.380108 l 9.9e-4,-8.534588 -18.719273,0.06792 -18.71927,0.06792 -0.07878,8.069792 c -0.08159,8.35811 0.03297,9.571529 0.98502,10.433124 1.296328,1.173159 1.677476,1.196813 18.287938,1.134938 14.681985,-0.05469 15.804185,-0.09119 16.482945,-0.536083 z M 21.930758,55.987439 c -0.08805,-0.08805 -0.305939,-0.01423 -0.484198,0.164018 -0.255755,0.255754 -0.240875,0.376113 0.07056,0.570706 0.281152,0.175673 0.420415,0.128498 0.484198,-0.164017 0.04924,-0.225841 0.01749,-0.482659 -0.07056,-0.570707 z m 39.800814,0.352798 c 0,-0.05207 -0.16687,-0.158707 -0.37081,-0.236966 -0.21983,-0.08436 -0.42471,0.06384 -0.50319,0.363977 -0.11175,0.42731 -0.0539,0.464267 0.3708,0.236966 0.27676,-0.148116 0.5032,-0.311907 0.5032,-0.363977 z M 16.752404,53.266441 v -2.657922 l 1.757188,0.07823 1.757189,0.07823 -0.0529,2.579687 c -0.03188,1.554795 0.05075,2.579688 0.207983,2.579688 0.143487,0 0.507652,-0.313714 0.809256,-0.69714 0.52275,-0.66457 0.54837,-1.017683 0.54837,-7.558019 0,-8.596884 -0.02252,-8.655013 -3.358683,-8.66976 -1.637661,-0.0072 -2.007143,0.08076 -2.645833,0.630137 l -0.742359,0.638548 v 7.322327 7.322328 l 0.624624,0.505788 c 0.343544,0.278185 0.730497,0.505791 0.859896,0.505791 0.1294,0 0.235272,-1.196065 0.235272,-2.657922 z m 47.568238,-2.579474 1.77655,0.07802 0.0757,2.579687 c 0.0417,1.418828 0.18184,2.579688 0.31153,2.579688 0.12969,0 0.48256,-0.313714 0.78417,-0.69714 0.52391,-0.666052 0.54837,-1.014656 0.54837,-7.817234 v -7.120096 l -0.64944,-0.64943 c -0.5739,-0.573908 -0.87988,-0.649433 -2.63107,-0.649433 -1.71285,0 -2.08235,0.08656 -2.72401,0.638122 l -0.74236,0.638122 -0.084,6.435182 c -0.093,7.122483 -0.0169,7.93043 0.82635,8.773644 l 0.58056,0.580554 0.0755,-2.723853 0.0755,-2.723854 z M 59.879482,38.89442 c 0,-0.57027 -0.96985,-1.654625 -1.78007,-1.99023 -0.53979,-0.223589 -5.15946,-0.286891 -17.095033,-0.234252 l -16.355356,0.07213 -0.905603,0.9883 c -0.49808,0.543568 -0.9056,1.109115 -0.9056,1.256771 0,0.179015 6.171303,0.26847 18.520833,0.26847 15.473409,0 18.520829,-0.05943 18.520829,-0.361193 z m -6.08541,-5.329965 v -1.986992 l -12.369273,0.06876 -12.369271,0.06876 v 1.918227 1.918226 l 12.369271,3e-6 12.369273,3e-6 z m -24.341669,-10.8453 v -8.069791 h -3.174999 -3.175 l 0.0016,5.754687 c 7.94e-4,3.165078 0.12445,6.197476 0.274751,6.73866 0.576197,2.074688 2.616396,3.614068 4.817002,3.634541 l 1.256659,0.01169 z m 23.081229,-0.46302 0.0698,-8.532813 3.52109,-0.07393 c 3.50135,-0.07352 3.52007,-0.07723 3.33949,-0.661458 -0.44528,-1.440616 -1.26552,-2.626256 -2.28242,-3.2992097 l -1.09993,-0.7279 H 41.510267 26.938862 l -1.081167,0.619691 c -1.189741,0.6819217 -2.490708,2.4547627 -2.490708,3.3941157 0,0.589125 0.06441,0.602006 3.373437,0.674643 l 3.373438,0.07405 0.06981,8.532813 0.06981,8.532812 H 41.35865 52.463822 Z m -12.926753,4.44855 c -0.990616,-0.431141 -2.216976,-1.958231 -2.216976,-2.760625 0,-0.57109 0.04268,-0.576453 4.013155,-0.504193 2.549024,0.04639 4.047414,0.176162 4.107064,0.355698 0.14872,0.447627 -1.03592,2.028425 -2.01408,2.687606 -1.02373,0.689895 -2.605934,0.780012 -3.889163,0.221514 z m 3.845533,-1.149921 c 0.3764,-0.280742 0.72286,-0.706181 0.76991,-0.94542 0.0752,-0.382548 -0.26761,-0.43498 -2.84427,-0.43498 -1.697648,0 -2.929815,0.106939 -2.929815,0.254275 0,0.334071 1.049165,1.322856 1.719791,1.620819 0.782185,0.347527 2.502614,0.0884 3.284384,-0.494694 z m -9.421193,-6.516868 c -0.635463,-0.546602 -0.742357,-0.835635 -0.742357,-2.007282 0,-1.171647 0.106894,-1.46068 0.742357,-2.007284 1.546175,-1.329962 4.086032,-0.594215 4.567232,1.323039 0.643109,2.56235 -2.537986,4.43701 -4.567232,2.691527 z m 11.496873,-0.02666 c -1.80644,-1.806445 -0.6764,-4.626451 1.85393,-4.626451 0.93053,0 1.31466,0.153574 1.93448,0.773397 1.73641,1.736406 0.53686,4.518269 -1.94829,4.518269 -0.90222,0 -1.32929,-0.15439 -1.84012,-0.665215 z m 10.98645,11.412389 c 1.03759,-0.445217 2.43868,-1.882836 2.81955,-2.893044 0.16821,-0.446172 0.28081,-3.178019 0.28081,-6.813021 v -6.068192 h -3.175 -3.175 v 8.069791 8.069792 h 1.19912 c 0.65952,0 1.58225,-0.164396 2.05052,-0.365326 z"
       id="path24" />
  </g>
</svg>
