<?xml version="1.0" encoding="UTF-8" standalone="no"?>
<svg
   xmlns:dc="http://purl.org/dc/elements/1.1/"
   xmlns:cc="http://creativecommons.org/ns#"
   xmlns:rdf="http://www.w3.org/1999/02/22-rdf-syntax-ns#"
   xmlns:svg="http://www.w3.org/2000/svg"
   xmlns="http://www.w3.org/2000/svg"
   xmlns:sodipodi="http://sodipodi.sourceforge.net/DTD/sodipodi-0.dtd"
   xmlns:inkscape="http://www.inkscape.org/namespaces/inkscape"
   width="8mm"
   height="8mm"
   viewBox="0 0 8 8"
   version="1.1"
   id="svg8"
   inkscape:version="1.0.1 (3bc2e813f5, 2020-09-07)"
   sodipodi:docname="drawing-3.svg">
  <defs
     id="defs2" />
  <sodipodi:namedview
     id="base"
     pagecolor="#ffffff"
     bordercolor="#666666"
     borderopacity="1.0"
     inkscape:pageopacity="0.0"
     inkscape:pageshadow="2"
     inkscape:zoom="15.839192"
     inkscape:cx="27.36832"
     inkscape:cy="21.950497"
     inkscape:document-units="mm"
     inkscape:current-layer="layer1"
     inkscape:document-rotation="0"
     showgrid="false"
     inkscape:window-width="1566"
     inkscape:window-height="1033"
     inkscape:window-x="128"
     inkscape:window-y="0"
     inkscape:window-maximized="0" />
  <metadata
     id="metadata5">
    <rdf:RDF>
      <cc:Work
         rdf:about="">
        <dc:format>image/svg+xml</dc:format>
        <dc:type
           rdf:resource="http://purl.org/dc/dcmitype/StillImage" />
        <dc:title></dc:title>
      </cc:Work>
    </rdf:RDF>
  </metadata>
  <g
     inkscape:label="Layer 1"
     inkscape:groupmode="layer"
     id="layer1">
    <path
       style="fill:#000000;stroke-width:0.0218098"
       d="M 3.5594761,6.6559397 C 2.9563234,6.5679292 2.3748542,6.2870353 1.9866764,5.8961579 1.8683441,5.7770026 1.7304323,5.6171585 1.6827598,5.5439092 l -0.03411,-0.05241 -0.3740507,0.1034175 c -0.38972832,0.1077514 -0.43165772,0.1086686 -0.43165772,0.00944 0,-0.055607 0.035342,-0.070361 0.40043922,-0.1671706 0.1680513,-0.04456 0.3084674,-0.084142 0.3120356,-0.087959 0.00356,-0.00381 -0.019895,-0.064487 -0.052142,-0.1348205 -0.047378,-0.1033385 -0.066793,-0.1259032 -0.1011651,-0.117579 -0.152197,0.036858 -0.68452942,0.1100431 -0.71360792,0.098107 -0.041098,-0.01687 -0.047911,-0.1188481 -0.00898,-0.134445 0.014498,-0.00581 0.1734404,-0.033886 0.35320682,-0.062396 0.1797665,-0.02851 0.3344558,-0.058867 0.3437542,-0.06746 0.026264,-0.024272 -0.028377,-0.2253299 -0.061237,-0.2253299 -0.015829,0 -0.1866317,0.015471 -0.37956082,0.03438 -0.3566362,0.034954 -0.4090435,0.029105 -0.4090435,-0.045659 0,-0.062098 0.074572,-0.083665 0.3941929,-0.1140098 0.18331922,-0.017404 0.34991352,-0.031862 0.37020982,-0.032129 0.032049,-4.219e-4 0.036902,-0.024348 0.036902,-0.1818967 0,-0.2252898 0.047684,-0.4806528 0.128214,-0.6866246 l 0.061569,-0.1574753 v -1.158725 c 0,-1.0062634 0.00436,-1.168549 0.03311,-1.2333676 0.037908,-0.085454 0.1296007,-0.13534845 0.2151147,-0.1170525 0.032004,0.00684 0.447097,0.2534842 0.9224288,0.5480822 l 0.8642395,0.5356328 0.4639134,0.00274 0.4639134,0.00274 0.6431512,-0.3941954 C 5.4773305,1.4909398 5.8702058,1.2488356 5.9966527,1.1697391 6.2518421,1.0101098 6.3174602,0.98747125 6.4082961,1.0277206 c 0.1278874,0.056667 0.1281277,0.059171 0.1281277,1.3354386 v 1.1587276 l 0.061569,0.1574754 c 0.080529,0.2059717 0.1282138,0.4613347 0.1282138,0.6866245 0,0.1575489 0.00486,0.1814747 0.036902,0.1818967 0.020295,2.684e-4 0.1868907,0.014725 0.3702095,0.032129 0.3196217,0.030343 0.3941932,0.051912 0.3941932,0.1140099 0,0.074763 -0.052408,0.080613 -0.4090437,0.045659 -0.1929291,-0.018909 -0.3637315,-0.034381 -0.3795608,-0.034381 -0.03286,0 -0.087501,0.2010579 -0.061237,0.22533 0.0093,0.00859 0.1639877,0.03895 0.3437542,0.06746 0.1797664,0.02851 0.3387095,0.056588 0.3532067,0.062396 0.038928,0.015597 0.032115,0.1175748 -0.00898,0.1344451 -0.029078,0.011943 -0.561411,-0.061249 -0.7136079,-0.098107 -0.034374,-0.00833 -0.053788,0.014241 -0.1011654,0.1175789 -0.032246,0.070334 -0.05571,0.1310034 -0.052142,0.1348206 0.00356,0.00381 0.1439841,0.043399 0.3120355,0.087959 0.3650969,0.09681 0.4004394,0.1115644 0.4004394,0.1671707 0,0.099232 -0.04193,0.098314 -0.4316578,-0.00944 l -0.3740528,-0.1034202 -0.03411,0.05241 C 6.3237156,5.6171585 6.1858039,5.7770026 6.0674716,5.8961579 5.4706968,6.497083 4.4954798,6.7925192 3.5594761,6.6559397 Z M 4.6407567,6.4672262 C 5.0590534,6.3767873 5.4853008,6.1817517 5.7791667,5.9463309 5.9734346,5.7906997 6.2556587,5.4711303 6.2177513,5.4497104 6.2016568,5.440616 6.1194469,5.4154332 6.0350628,5.3937482 5.8684464,5.3509311 5.8214801,5.3057632 5.8699071,5.2349166 c 0.026574,-0.038875 0.035476,-0.038498 0.2153245,0.00912 0.1031826,0.027319 0.202229,0.054327 0.2201029,0.060018 0.022646,0.0072 0.049839,-0.027475 0.0897,-0.1144186 0.065612,-0.1431089 0.077203,-0.1318943 -0.174517,-0.1688359 -0.098362,-0.014434 -0.1956264,-0.035855 -0.2161414,-0.0476 -0.047266,-0.027059 -0.048498,-0.1068162 -0.00194,-0.1259268 0.030997,-0.012719 0.2775821,0.016337 0.4480151,0.052801 0.055141,0.011791 0.060383,0.00612 0.082961,-0.0898 0.013257,-0.056316 0.024102,-0.1072873 0.024102,-0.1132686 0,-0.00599 -0.085246,-0.018009 -0.1894348,-0.026728 C 6.152991,4.6522807 6.1017552,4.6265127 6.1250353,4.5480503 c 0.015296,-0.051554 0.018669,-0.0521 0.2345409,-0.037972 l 0.2190215,0.014333 V 4.3657719 c 0,-0.205254 -0.05119,-0.4672087 -0.1226181,-0.6274694 L 6.3993581,3.6112631 6.3888143,2.4068871 C 6.3797222,1.3682359 6.3739111,1.1995696 6.3465839,1.1811383 6.3135146,1.1588344 6.3184492,1.1559454 5.0919661,1.9156353 L 4.5437048,2.255231 4.0376175,2.2580907 3.5315301,2.2609509 3.0887036,1.9901177 C 2.8451491,1.8411595 2.4418608,1.5934364 2.1925073,1.4396222 1.8558959,1.2319826 1.7309914,1.1654389 1.707507,1.1812351 1.6802538,1.1995661 1.6744175,1.369182 1.665333,2.4068864 L 1.6547892,3.6112625 1.5981676,3.7383018 C 1.5267396,3.8985625 1.4755498,4.1605172 1.4755498,4.3657712 v 0.1586387 l 0.2190216,-0.014336 c 0.2158716,-0.01413 0.2192447,-0.013578 0.2345408,0.037972 0.023281,0.078463 -0.027956,0.1042307 -0.2430406,0.1222302 -0.1041893,0.00871 -0.1894348,0.020747 -0.1894348,0.026728 0,0.00599 0.010849,0.056952 0.024102,0.1132686 0.02258,0.095924 0.02782,0.1015982 0.082962,0.0898 0.1704329,-0.036464 0.4170181,-0.065524 0.4480151,-0.052801 0.046554,0.019109 0.045322,0.098867 -0.00194,0.1259268 -0.020515,0.011749 -0.1177791,0.033165 -0.2161415,0.0476 -0.2517202,0.036941 -0.240129,0.025727 -0.1745172,0.1688359 0.039861,0.086944 0.067054,0.1216289 0.0897,0.1144186 0.017874,-0.00569 0.11692,-0.0327 0.2201029,-0.060018 0.1798493,-0.047618 0.188751,-0.047995 0.2153246,-0.00912 0.048427,0.070846 0.00146,0.1160147 -0.1651558,0.1588317 -0.084384,0.021685 -0.166594,0.046868 -0.1826884,0.055962 -0.021494,0.012151 0.014611,0.06566 0.135988,0.2015627 0.4391954,0.4917578 0.9501547,0.7453187 1.7489282,0.8678963 0.148245,0.022749 0.7245682,-0.00981 0.9194438,-0.051944 z M 3.4188781,5.4886484 C 3.2973814,5.4470775 3.1623828,5.2963422 3.1314619,5.167728 3.1010815,5.0413633 3.118857,4.9759895 3.1835951,4.9759895 c 0.044378,0 0.084348,0.06199 0.084348,0.1308191 0,0.06354 0.076391,0.1571682 0.1698489,0.2081717 0.1515275,0.082694 0.3432369,0.043574 0.449693,-0.091765 0.030383,-0.038626 0.055241,-0.078314 0.055241,-0.088199 0,-0.00988 -0.042701,-0.093968 -0.094892,-0.1868555 C 3.7379108,4.7525213 3.7296673,4.683044 3.8085041,4.6167059 c 0.045326,-0.03814 0.085588,-0.046752 0.2185693,-0.046752 0.1329813,0 0.173243,0.00862 0.2185696,0.046752 0.078838,0.066338 0.070593,0.1358153 -0.039331,0.3314549 -0.052191,0.092887 -0.094892,0.176972 -0.094892,0.1868555 0,0.00988 0.024858,0.049573 0.055241,0.088199 0.1064568,0.1353387 0.2981657,0.174459 0.449693,0.091765 0.093458,-0.051003 0.1698491,-0.1446306 0.1698491,-0.2081717 0,-0.068829 0.03997,-0.1308191 0.084348,-0.1308191 0.064738,0 0.082514,0.065374 0.052133,0.1917385 C 4.902137,5.2531986 4.8727072,5.3026787 4.8011742,5.3720253 4.6048609,5.5623377 4.3091838,5.569151 4.1112616,5.3879229 l -0.084188,-0.077087 -0.084188,0.077087 C 3.8965822,5.4303199 3.821941,5.4767909 3.7770153,5.4911893 3.6784993,5.5227643 3.5151982,5.5216043 3.4188781,5.4886484 Z M 2.8275809,4.1722513 C 2.7614309,4.1226867 2.71713,4.0027485 2.733208,3.9167493 2.7520245,3.8161043 2.8509383,3.7353286 2.9553646,3.7353286 c 0.117468,0 0.22823,0.1149465 0.22823,0.2368535 0,0.1202211 -0.110872,0.2368534 -0.225156,0.2368534 -0.044971,0 -0.1038562,-0.016553 -0.1308577,-0.036784 z m 2.1290387,-0.02268 c -0.04904,-0.046877 -0.070859,-0.090734 -0.079523,-0.159842 -0.010873,-0.086724 -0.00528,-0.1023547 0.062455,-0.1748204 0.060479,-0.064696 0.090262,-0.079581 0.1592318,-0.079581 0.1629943,0 0.268765,0.1649214 0.2070545,0.3228467 -0.038543,0.098637 -0.082163,0.1319483 -0.189775,0.144923 -0.079177,0.00955 -0.1011885,0.00216 -0.1594435,-0.053526 z"
       id="path24" />
  </g>
</svg>
