<?xml version="1.0" encoding="UTF-8" standalone="no"?>
<svg
   xmlns:dc="http://purl.org/dc/elements/1.1/"
   xmlns:cc="http://creativecommons.org/ns#"
   xmlns:rdf="http://www.w3.org/1999/02/22-rdf-syntax-ns#"
   xmlns:svg="http://www.w3.org/2000/svg"
   xmlns="http://www.w3.org/2000/svg"
   xmlns:sodipodi="http://sodipodi.sourceforge.net/DTD/sodipodi-0.dtd"
   xmlns:inkscape="http://www.inkscape.org/namespaces/inkscape"
   width="8cm"
   height="8.6999998cm"
   viewBox="0 0 80 86.999996"
   version="1.1"
   id="svg8"
   inkscape:version="1.0.1 (3bc2e813f5, 2020-09-07)"
   sodipodi:docname="drawing-1.svg">
  <defs
     id="defs2" />
  <sodipodi:namedview
     id="base"
     pagecolor="#ffffff"
     bordercolor="#666666"
     borderopacity="1.0"
     inkscape:pageopacity="0.0"
     inkscape:pageshadow="2"
     inkscape:zoom="1.4"
     inkscape:cx="172.36887"
     inkscape:cy="230.01873"
     inkscape:document-units="mm"
     inkscape:current-layer="layer1"
     inkscape:document-rotation="0"
     showgrid="false"
     units="cm"
     inkscape:window-width="1566"
     inkscape:window-height="1033"
     inkscape:window-x="32"
     inkscape:window-y="0"
     inkscape:window-maximized="0" />
  <metadata
     id="metadata5">
    <rdf:RDF>
      <cc:Work
         rdf:about="">
        <dc:format>image/svg+xml</dc:format>
        <dc:type
           rdf:resource="http://purl.org/dc/dcmitype/StillImage" />
        <dc:title></dc:title>
      </cc:Work>
    </rdf:RDF>
  </metadata>
  <g
     inkscape:label="Layer 1"
     inkscape:groupmode="layer"
     id="layer1">
    <path
       style="fill:#000000;stroke-width:0.345046"
       d="m 18.520835,43.939732 v -24.04609 h 4.233853 c 3.713639,0 4.263159,0.07493 4.472339,0.609865 3.60338,9.21479 12.77702,34.282269 13.4695,36.806154 l 0.94325,3.437852 0.59769,-2.218123 c 0.32873,-1.219966 3.60046,-10.412086 7.2705,-20.426934 l 6.67281,-18.208814 h 4.05939 4.0594 v 24.04609 24.046089 h -2.94675 -2.94674 l 0.14417,-20.725635 0.14417,-20.725634 -1.12049,3.73655 c -0.61627,2.055102 -3.94581,11.342432 -7.39899,20.638511 l -6.27849,16.901961 -2.22507,0.102046 -2.22507,0.10205 -0.53304,-1.358953 C 36.133127,59.56892 26.517877,33.479044 25.532092,30.348464 c -0.694084,-2.204225 -1.28725,-4.033939 -1.318147,-4.066031 -0.0309,-0.03209 -0.0089,9.338042 0.04882,20.82252 l 0.104993,20.880868 h -2.92346 -2.923459 z"
       id="path24" />
  </g>
</svg>
