<?xml version="1.0" encoding="UTF-8" standalone="no"?>
<svg
   xmlns:dc="http://purl.org/dc/elements/1.1/"
   xmlns:cc="http://creativecommons.org/ns#"
   xmlns:rdf="http://www.w3.org/1999/02/22-rdf-syntax-ns#"
   xmlns:svg="http://www.w3.org/2000/svg"
   xmlns="http://www.w3.org/2000/svg"
   xmlns:sodipodi="http://sodipodi.sourceforge.net/DTD/sodipodi-0.dtd"
   xmlns:inkscape="http://www.inkscape.org/namespaces/inkscape"
   width="8.8000002cm"
   height="8cm"
   viewBox="0 0 88.000001 79.999999"
   version="1.1"
   id="svg8"
   inkscape:version="1.0.1 (3bc2e813f5, 2020-09-07)"
   sodipodi:docname="drawing-5.svg">
  <defs
     id="defs2" />
  <sodipodi:namedview
     id="base"
     pagecolor="#ffffff"
     bordercolor="#666666"
     borderopacity="1.0"
     inkscape:pageopacity="0.0"
     inkscape:pageshadow="2"
     inkscape:zoom="1.979899"
     inkscape:cx="165.48256"
     inkscape:cy="185.39845"
     inkscape:document-units="mm"
     inkscape:current-layer="layer1"
     inkscape:document-rotation="0"
     showgrid="false"
     units="cm"
     inkscape:window-width="1566"
     inkscape:window-height="1033"
     inkscape:window-x="96"
     inkscape:window-y="0"
     inkscape:window-maximized="0" />
  <metadata
     id="metadata5">
    <rdf:RDF>
      <cc:Work
         rdf:about="">
        <dc:format>image/svg+xml</dc:format>
        <dc:type
           rdf:resource="http://purl.org/dc/dcmitype/StillImage" />
        <dc:title></dc:title>
      </cc:Work>
    </rdf:RDF>
  </metadata>
  <g
     inkscape:label="Layer 1"
     inkscape:groupmode="layer"
     id="layer1">
    <path
       style="fill:#000000;stroke-width:0.352778"
       d="m 39.021576,74.00166 c -3.155053,-1.119127 -8.222283,-5.864404 -12.279331,-11.49915 -1.722277,-2.392031 -2.158707,-3.319463 -2.798544,-5.947008 -0.633655,-2.602156 -0.968559,-3.320538 -2.040794,-4.377591 -0.705506,-0.695519 -1.625016,-1.971629 -2.043355,-2.835804 -2.05526,-4.245599 -2.888906,-11.59591 -1.475474,-13.009342 0.388055,-0.388056 0.844581,-0.705556 1.014503,-0.705556 0.169921,0 0.385208,-3.294062 0.478415,-7.320138 0.155193,-6.70351 0.243579,-7.51861 1.04925,-9.676239 3.08152,-8.25247 11.30848,-14.0086939 20.924398,-14.6403399 9.27962,-0.609556 18.68376,4.310556 22.72256,11.8881179 1.81102,3.397828 2.14143,5.394885 2.14143,12.943551 0,5.813747 0.0771,6.805048 0.52916,6.805048 0.29104,0 0.84667,0.3175 1.23472,0.705556 0.5853,0.585296 0.70467,1.17156 0.70035,3.439583 -0.01,5.024751 -2.02413,10.820113 -4.38795,12.623086 -1.02062,0.778468 -1.27337,1.289971 -1.79004,3.622587 -0.78597,3.548425 -1.38025,4.654048 -4.76011,8.85591 -3.57538,4.44495 -6.64505,7.252691 -9.34141,8.544326 -1.89265,0.906636 -2.47137,1.01103 -5.46806,0.986374 -1.84326,-0.01517 -3.827635,-0.196501 -4.409718,-0.402971 z m 10.059008,-1.398972 c 0.87046,-0.515062 2.4978,-1.757528 3.6163,-2.761029 2.32522,-2.086144 7.69389,-8.648304 8.54807,-10.44836 0.82623,-1.741148 1.80089,-7.13542 2.67349,-14.796493 1.50414,-13.205687 0.0886,-21.735083 -4.40433,-26.538387 -3.33003,-3.560069 -7.23195,-4.722894 -15.90643,-4.740323 -9.049041,-0.01818 -12.749634,1.053869 -16.228828,4.701441 -3.280853,3.43963 -4.687467,7.836916 -5.023229,15.703357 -0.261638,6.129813 1.221316,19.365385 2.703243,24.126826 1.004201,3.226506 7.076081,10.730367 11.033016,13.635023 2.637576,1.93616 3.837552,2.264194 7.873418,2.152332 3.08985,-0.08564 3.73099,-0.215286 5.11528,-1.034387 z m -8.720542,-8.162737 c -1.210714,-0.443329 -2.282172,-1.296077 -1.628493,-1.296077 0.209138,0 0.950164,0.238125 1.646725,0.529166 1.74628,0.729643 4.68033,0.655744 6.48465,-0.163325 0.88102,-0.399937 1.57688,-0.5386 1.70035,-0.338822 0.11495,0.185998 -0.47678,0.649397 -1.31496,1.029776 -1.73184,0.785936 -5.07795,0.902172 -6.888272,0.239282 z m -2.8838,-3.604412 c -1.23799,-0.268594 -2.336011,-0.573472 -2.440047,-0.677509 -0.520803,-0.520803 0.464224,-0.532677 2.875274,-0.03468 3.337975,0.689479 8.469525,0.698641 11.669105,0.02085 2.39989,-0.508399 3.31694,-0.440306 2.32517,0.172642 -1.72689,1.06728 -10.45491,1.381026 -14.429502,0.518697 z m 0.131681,-1.929112 c -0.238635,-0.386119 2.107758,-1.981214 3.362221,-2.285657 0.48963,-0.11883 1.2799,-0.07191 1.75614,0.104267 0.52052,0.192553 1.33341,0.191233 2.03796,-0.0032 1.3261,-0.366156 2.9167,0.04521 4.30623,1.113666 1.38217,1.062803 0.62866,1.181559 -1.26781,0.199806 -1.38266,-0.715765 -1.93926,-0.831627 -2.80113,-0.583099 -0.59157,0.170589 -1.86157,0.23647 -2.82222,0.146406 -1.454303,-0.136352 -1.966357,-0.01365 -3.059504,0.73308 -0.722083,0.49326 -1.402432,0.751935 -1.511887,0.574833 z m 3.001153,-7.127539 c -0.749342,-0.326394 -0.786024,-0.407077 -0.243977,-0.536639 0.797665,-0.190662 1.655085,0.121035 1.655085,0.601666 0,0.444511 -0.26985,0.432076 -1.411108,-0.06503 z m 4.653378,0.04412 c 0.19211,-0.584073 2.0494,-0.896034 2.0494,-0.34423 0,0.206915 -0.22514,0.37621 -0.50031,0.37621 -0.27518,0 -0.77309,0.104672 -1.10647,0.232604 -0.42536,0.163223 -0.55738,0.08431 -0.44262,-0.264584 z m -7.290992,-1.00046 c -0.253072,-0.797359 0.663706,-3.200893 1.220914,-3.200893 0.270306,0 0.265216,0.220436 -0.01728,0.74828 -0.220257,0.411554 -0.400467,1.284679 -0.400467,1.940278 0,1.300942 -0.459788,1.594238 -0.80317,0.512335 z m 10.512742,0.185812 c 0.12455,-0.324566 0.01,-1.219352 -0.2553,-1.988414 -0.26496,-0.769059 -0.361,-1.398291 -0.21343,-1.398291 1.00209,0 1.67743,3.472359 0.73947,3.802062 -0.34685,0.12192 -0.42871,-0.0037 -0.27074,-0.415357 z M 29.663266,41.728814 c -2.062436,-1.421479 -1.979578,-2.084556 0.413018,-3.305167 2.037519,-1.039465 4.398498,-0.902823 6.406781,0.370792 0.911112,0.577809 1.656567,1.212809 1.656567,1.411113 0,0.524704 -0.29582,0.449146 -1.444847,-0.369031 -0.990032,-0.704966 -1.024598,-0.70681 -1.024598,-0.05468 0,1.5656 -2.519399,2.447791 -3.678967,1.288221 -0.304901,-0.304898 -0.554366,-0.939898 -0.554366,-1.411111 0,-1.007993 -0.06661,-1.022845 -1.428629,-0.318519 -1.397805,0.722834 -1.311155,1.164516 0.366708,1.869221 0.774138,0.325141 1.409138,0.710226 1.411111,0.855747 0.0064,0.474627 -1.230299,0.278529 -2.122778,-0.336589 z m 24.704138,0.248395 c 0,-0.194028 0.22928,-0.352778 0.5095,-0.352778 0.28022,0 0.94703,-0.376351 1.48179,-0.836334 l 0.9723,-0.836337 -1.1115,-0.574774 c -1.43931,-0.744298 -1.49931,-0.733014 -1.49931,0.281968 0,2.54459 -3.79976,2.615293 -4.2851,0.07974 -0.11703,-0.611379 -0.18482,-0.60356 -1.11334,0.128411 -1.07212,0.845181 -1.69449,0.712233 -0.93723,-0.200209 1.53955,-1.855045 5.32467,-2.453131 7.7369,-1.222505 1.59713,0.814797 1.89334,1.189221 1.62061,2.048534 -0.35981,1.133662 -3.37462,2.459687 -3.37462,1.484284 z M 27.556299,37.791854 c 0,-0.477795 2.579151,-2.144185 3.908932,-2.525561 2.056944,-0.589924 4.557734,-0.367495 4.557734,0.405381 0,0.176965 -0.398908,0.221635 -0.886463,0.09927 -1.487577,-0.373358 -3.916891,0.188827 -5.524821,1.27854 -1.599566,1.084044 -2.055382,1.248678 -2.055382,0.742373 z m 29.186735,-0.576211 c -1.21703,-1.071031 -3.52822,-1.716008 -5.29835,-1.478584 -0.93226,0.125043 -1.30714,0.05431 -1.21406,-0.229057 0.18568,-0.565226 2.73917,-0.704901 4.4525,-0.243549 1.409,0.379402 3.56484,1.897803 3.56484,2.510782 0,0.525966 -0.46998,0.351209 -1.50493,-0.559592 z M 25.086855,33.669267 c 0,-0.736812 2.653437,-1.956248 4.719321,-2.168852 2.827378,-0.29097 9.051823,1.056575 8.309462,1.798936 -0.08434,0.08434 -1.026256,-0.08717 -2.093148,-0.381127 -1.066891,-0.29396 -3.209802,-0.558757 -4.762024,-0.588438 -2.466112,-0.04716 -3.033663,0.06531 -4.497917,0.891339 -1.229568,0.693632 -1.675694,0.812943 -1.675694,0.448142 z m 34.219439,-0.437074 c -1.40446,-0.846104 -1.91289,-0.95015 -4.40972,-0.902407 -1.55222,0.02968 -3.69535,0.296281 -4.7625,0.592445 -1.06715,0.296163 -2.07395,0.408076 -2.23734,0.248695 -0.70179,-0.684602 6.00542,-1.972211 8.64493,-1.6596 1.91913,0.227292 4.52852,1.518336 4.52852,2.240566 0,0.579434 0.11857,0.614368 -1.76389,-0.519699 z m -37.044628,12.59961 c -0.386424,-3.380687 -0.702589,-6.710482 -0.702589,-7.399539 0,-1.962767 -1.385881,-2.779887 -2.620634,-1.545134 -1.158172,1.158171 -0.501078,7.273018 1.210669,11.266363 0.754951,1.761229 2.417761,4.222401 2.677346,3.962816 0.07579,-0.07579 -0.178369,-2.903816 -0.564792,-6.284506 z m 43.192898,4.648648 c 1.56978,-2.265193 2.74735,-6.172218 2.94061,-9.756535 0.14482,-2.685802 0.077,-3.288773 -0.42659,-3.792359 -0.62896,-0.628957 -1.52568,-0.765529 -2.15893,-0.328807 -0.2067,0.14255 -0.65731,3.037306 -1.00137,6.432792 -0.34405,3.395486 -0.70824,6.768923 -0.80931,7.496527 -0.23646,1.702304 0.25212,1.684979 1.45559,-0.05162 z M 21.336727,34.833459 c 0.116994,-0.436562 0.214884,-1.462808 0.217533,-2.280546 0.0058,-1.801495 1.162749,-7.834446 1.888887,-9.84998 1.244006,-3.452974 4.202642,-6.731424 7.464541,-8.271423 2.190728,-1.03428 4.611099,-1.521656 9.624656,-1.938059 l 2.92188,-0.242679 -0.0997,-3.7458079 -0.0997,-3.745808 -2.10389,0.09808 c -5.376195,0.250625 -10.370629,2.523803 -14.547977,6.6214019 -2.262841,2.219641 -3.164261,3.412443 -4.1323,5.468055 -1.583612,3.362773 -1.964046,5.866567 -1.967338,12.947881 -0.0024,5.25229 0.288006,6.97371 0.833318,4.938888 z M 66.009074,28.99855 c 0,-7.128512 -0.32526,-9.234262 -1.90917,-12.359954 -1.90298,-3.755356 -5.58754,-7.3057779 -9.79976,-9.4430089 -1.80584,-0.916259 -5.84184,-2.071469 -8.4876,-2.429372 l -1.67569,-0.22668 v 3.874092 3.8740929 l 2.38125,0.221521 c 7.58196,0.705329 10.44136,1.755457 13.45424,4.94113 3.12502,3.304248 4.76707,8.040202 5.23203,15.090033 0.35262,5.346566 0.8047,3.356752 0.8047,-3.541854 z"
       id="path24" />
  </g>
</svg>
