<?xml version="1.0" encoding="UTF-8" standalone="no"?>
<svg
   xmlns:dc="http://purl.org/dc/elements/1.1/"
   xmlns:cc="http://creativecommons.org/ns#"
   xmlns:rdf="http://www.w3.org/1999/02/22-rdf-syntax-ns#"
   xmlns:svg="http://www.w3.org/2000/svg"
   xmlns="http://www.w3.org/2000/svg"
   xmlns:sodipodi="http://sodipodi.sourceforge.net/DTD/sodipodi-0.dtd"
   xmlns:inkscape="http://www.inkscape.org/namespaces/inkscape"
   width="8cm"
   height="8.6999998cm"
   viewBox="0 0 80 86.999996"
   version="1.1"
   id="svg8"
   inkscape:version="1.0.1 (3bc2e813f5, 2020-09-07)"
   sodipodi:docname="drawing.svg">
  <defs
     id="defs2" />
  <sodipodi:namedview
     id="base"
     pagecolor="#ffffff"
     bordercolor="#666666"
     borderopacity="1.0"
     inkscape:pageopacity="0.0"
     inkscape:pageshadow="2"
     inkscape:zoom="0.98994949"
     inkscape:cx="35.259459"
     inkscape:cy="290.83938"
     inkscape:document-units="mm"
     inkscape:current-layer="layer1"
     inkscape:document-rotation="0"
     showgrid="false"
     units="cm"
     inkscape:window-width="1566"
     inkscape:window-height="1033"
     inkscape:window-x="224"
     inkscape:window-y="0"
     inkscape:window-maximized="0" />
  <metadata
     id="metadata5">
    <rdf:RDF>
      <cc:Work
         rdf:about="">
        <dc:format>image/svg+xml</dc:format>
        <dc:type
           rdf:resource="http://purl.org/dc/dcmitype/StillImage" />
        <dc:title></dc:title>
      </cc:Work>
    </rdf:RDF>
  </metadata>
  <g
     inkscape:label="Layer 1"
     inkscape:groupmode="layer"
     id="layer1">
    <path
       style="fill:#000000;stroke-width:0.124029"
       d="m 40.257714,79.577592 c 0.200669,-0.342086 0.26425,-0.405486 0.26425,-0.263497 0,0.05996 -0.09633,0.206642 -0.21407,0.325954 -0.201848,0.204547 -0.204714,0.20098 -0.05018,-0.06246 z m 2.567319,0.009 c -0.05987,-0.185888 -0.04196,-0.229521 0.06019,-0.146591 0.07999,0.06494 0.118351,0.184041 0.08525,0.264666 -0.03436,0.0837 -0.09676,0.03304 -0.145435,-0.118075 z m -1.339511,-0.107528 c 0,-0.06146 0.06194,-0.142835 0.137651,-0.180823 0.07571,-0.03799 0.137651,-0.01878 0.137651,0.04269 0,0.06146 -0.06194,0.142836 -0.137651,0.180823 -0.07571,0.03799 -0.137651,0.01878 -0.137651,-0.04269 z m -2.546544,-0.460211 c 0.04679,-0.06147 0.112389,-0.111756 0.145775,-0.111756 0.03339,0 0.0607,0.05029 0.0607,0.111756 0,0.06146 -0.0656,0.111755 -0.145775,0.111755 -0.08018,0 -0.107492,-0.05029 -0.0607,-0.111755 z m -7.084651,-0.957951 c -0.0089,-0.243653 0.438911,-1.1654 0.56619,-1.1654 0.132593,0 0.418618,0.487512 0.590105,1.005798 0.08425,0.254626 0.07522,0.262055 -0.101924,0.08382 -0.106903,-0.107564 -0.304596,-0.195572 -0.439319,-0.195572 -0.134723,0 -0.327239,0.08801 -0.427812,0.195572 -0.100575,0.107565 -0.184831,0.141668 -0.18724,0.07579 z m 0.733959,-0.66186 c -0.04341,-0.09185 -0.134382,-0.139166 -0.202155,-0.105159 -0.194354,0.09752 -0.143707,0.272151 0.07893,0.272151 0.122795,0 0.17117,-0.06556 0.123226,-0.166992 z m 5.460337,0.617749 c -0.0067,-0.250586 0.430551,-1.121289 0.563081,-1.121289 0.118822,0 0.425007,0.524078 0.59331,1.015532 0.08442,0.246507 0.07566,0.252866 -0.10202,0.07408 -0.106902,-0.107564 -0.304595,-0.195572 -0.439318,-0.195572 -0.134724,0 -0.32724,0.08801 -0.427813,0.195572 -0.143822,0.153819 -0.183796,0.160581 -0.18724,0.03168 z M 38.7689,77.610948 c 0.124084,-0.100739 -0.04677,-0.388202 -0.188473,-0.317102 -0.06777,0.03401 -0.123228,0.134298 -0.123228,0.222869 0,0.16457 0.163999,0.21415 0.311701,0.09423 z m 2.957511,0.429295 c -0.189552,-0.03432 -0.240889,-0.16095 -0.240889,-0.594195 0,-0.505977 0.02664,-0.550583 0.328878,-0.550583 0.180882,0 0.473864,0.09532 0.651069,0.211813 0.273956,0.180104 0.301998,0.257744 0.187313,0.518608 -0.140943,0.320592 -0.516483,0.488568 -0.926371,0.414357 z m 0.626582,-0.37524 c 0.193577,-0.249592 0.0239,-0.546027 -0.312548,-0.546027 -0.228893,0 -0.279621,0.07245 -0.279621,0.399337 0,0.310557 0.05027,0.391306 0.226136,0.363205 0.124374,-0.01987 0.289089,-0.117304 0.366033,-0.216515 z m 2.30937,-0.126945 c -0.0093,-0.548708 0.02551,-0.642593 0.238125,-0.642593 0.136946,0 0.366894,0.06999 0.510995,0.15554 0.228232,0.135491 0.237127,0.179875 0.06901,0.34434 -0.157378,0.153954 -0.161011,0.230387 -0.01968,0.41412 0.265008,0.344515 0.08555,0.365859 -0.241132,0.02868 -0.202048,-0.20854 -0.30712,-0.252379 -0.348914,-0.145579 -0.03289,0.08405 -0.09079,0.228256 -0.128668,0.320454 -0.03788,0.0922 -0.07375,-0.121534 -0.07973,-0.47496 z m 0.643039,-0.279388 c 0.0336,-0.08194 -0.06128,-0.139694 -0.229483,-0.139694 -0.169081,0 -0.286773,0.07216 -0.286773,0.175826 0,0.205393 0.429532,0.17533 0.516256,-0.03613 z m 0.894667,0.79209 c -0.09463,-0.031 -0.172063,-0.107847 -0.172063,-0.170767 0,-0.06292 0.0985,-0.08371 0.218898,-0.0462 0.429007,0.133654 0.495743,-0.07471 0.105736,-0.330132 -0.368467,-0.241315 -0.378836,-0.269787 -0.163244,-0.448221 0.156316,-0.129375 0.310967,-0.161384 0.481779,-0.09972 0.228207,0.08239 0.222808,0.0949 -0.05815,0.134809 -0.37849,0.05376 -0.403106,0.212827 -0.04713,0.304554 0.361285,0.0931 0.456186,0.35368 0.203511,0.558819 -0.219904,0.178535 -0.28579,0.189743 -0.569336,0.09685 z m 1.376511,0 c -0.273476,-0.08959 -0.199341,-0.246119 0.0877,-0.185176 0.408123,0.08665 0.489578,-0.174507 0.09264,-0.29703 -0.212449,-0.06558 -0.35241,-0.195656 -0.35241,-0.327526 0,-0.255641 0.506867,-0.425774 0.729641,-0.244909 0.11,0.08931 0.06862,0.122857 -0.151507,0.122857 -0.378288,0 -0.396451,0.184324 -0.02753,0.279388 0.306503,0.07898 0.363669,0.386454 0.110121,0.592303 -0.176052,0.142932 -0.219487,0.148273 -0.488661,0.06009 z m 1.521132,-0.04718 c -0.578214,-0.173657 -0.515846,-0.894505 0.09092,-1.050855 0.316784,-0.08163 0.76439,0.08711 0.880021,0.331753 0.119156,0.252102 -0.126182,0.689687 -0.421882,0.752466 -0.141121,0.02996 -0.388198,0.01495 -0.549061,-0.03336 z m 0.692961,-0.344395 c 0.177143,-0.22839 -0.0922,-0.540205 -0.466622,-0.540205 -0.315795,0 -0.48244,0.404606 -0.257341,0.62481 0.208269,0.203738 0.529429,0.166206 0.723963,-0.0846 z m -20.005489,-0.14247 c 0,-0.61655 0.195862,-0.73487 0.479451,-0.289638 0.27127,0.425892 0.40593,0.426683 0.621757,0.0037 0.25755,-0.504807 0.415091,-0.404476 0.394833,0.251449 -0.0165,0.53414 -0.02653,0.551666 -0.111989,0.195572 l -0.09387,-0.391143 -0.185409,0.307327 c -0.101974,0.169029 -0.235431,0.307327 -0.296569,0.307327 -0.06114,0 -0.203572,-0.138298 -0.316522,-0.307327 l -0.20536,-0.307327 -0.0055,0.363204 c -0.003,0.199763 -0.06746,0.363205 -0.143168,0.363205 -0.07571,0 -0.137651,-0.223336 -0.137651,-0.496303 z m 3.716578,0 c 0,-0.553335 0.132539,-0.674571 0.627254,-0.573764 0.348272,0.07097 0.468063,0.431987 0.189686,0.571667 -0.09598,0.04816 -0.06484,0.146935 0.09016,0.285984 0.204499,0.183457 0.207728,0.212416 0.0237,0.212416 -0.117196,0 -0.248738,-0.07543 -0.292317,-0.167633 -0.04358,-0.0922 -0.143118,-0.167633 -0.221204,-0.167633 -0.07808,0 -0.14197,0.07543 -0.14197,0.167633 0,0.0922 -0.06194,0.167633 -0.137651,0.167633 -0.07571,0 -0.137651,-0.223336 -0.137651,-0.496303 z m 0.688255,-0.230106 c 0,-0.0922 -0.09291,-0.167633 -0.206476,-0.167633 -0.113563,0 -0.206477,0.07543 -0.206477,0.167633 0,0.0922 0.09291,0.167633 0.206477,0.167633 0.113562,0 0.206476,-0.07543 0.206476,-0.167633 z m 0.825906,0.167633 c 0,-0.307328 0.06194,-0.558777 0.137651,-0.558777 0.07571,0 0.137651,0.251449 0.137651,0.558777 0,0.307327 -0.06194,0.558776 -0.137651,0.558776 -0.07571,0 -0.137651,-0.251449 -0.137651,-0.558776 z m 0.991492,-0.0038 c 0.15839,-0.309426 0.347898,-0.546378 0.42113,-0.52656 0.130766,0.03539 0.680453,1.089154 0.568148,1.089154 -0.03157,0 -0.180436,-0.06239 -0.330825,-0.138638 -0.217636,-0.110346 -0.329233,-0.110346 -0.546869,0 -0.414827,0.210328 -0.422105,0.182676 -0.111584,-0.423956 z m 0.466012,-0.191188 c -0.15037,-0.122082 -0.253481,0.07207 -0.145522,0.274003 0.102369,0.191478 0.10979,0.191303 0.166825,-0.0039 0.03283,-0.112376 0.02324,-0.23391 -0.0213,-0.270076 z m 3.222631,0.195011 c 0,-0.307328 0.04646,-0.556944 0.103239,-0.554705 0.05678,0.0022 0.273581,0.186353 0.481778,0.40914 l 0.37854,0.405067 v -0.409139 c 0,-0.225028 0.06194,-0.40914 0.137651,-0.40914 0.07571,0 0.137652,0.251449 0.137652,0.558777 0,0.307327 -0.05745,0.558776 -0.127675,0.558776 -0.07022,0 -0.286334,-0.163442 -0.480252,-0.363205 l -0.352578,-0.363204 -0.0015,0.363204 c -8.38e-4,0.199763 -0.06347,0.363205 -0.139176,0.363205 -0.07571,0 -0.137651,-0.251449 -0.137651,-0.558776 z m 3.578927,0 c 0,-0.54636 0.0092,-0.558777 0.412953,-0.558777 0.227124,0 0.412953,0.05029 0.412953,0.111755 0,0.06147 -0.123886,0.111756 -0.275302,0.111756 -0.157577,0 -0.275302,0.0745 -0.275302,0.174228 0,0.09583 0.05766,0.145296 0.128139,0.109933 0.07048,-0.03536 0.162696,-0.0189 0.204928,0.03658 0.04224,0.05548 -0.06082,0.130088 -0.229003,0.165796 -0.338957,0.07196 -0.216949,0.238574 0.240064,0.32782 0.178259,0.03481 0.117607,0.05833 -0.172064,0.06673 -0.447201,0.01296 -0.447366,0.01276 -0.447366,-0.545812 z m 7.295505,0 c 0,-0.307328 0.04646,-0.556944 0.103238,-0.554705 0.05678,0.0022 0.273581,0.186353 0.481778,0.40914 l 0.378541,0.405067 v -0.409139 c 0,-0.225028 0.06194,-0.40914 0.137651,-0.40914 0.07571,0 0.137651,0.251449 0.137651,0.558777 0,0.307327 -0.05644,0.558776 -0.125415,0.558776 -0.06898,0 -0.285778,-0.154729 -0.481779,-0.343841 l -0.356363,-0.34384 v 0.34384 c 0,0.189112 -0.06194,0.343841 -0.137651,0.343841 -0.07571,0 -0.137651,-0.251449 -0.137651,-0.558776 z M 23.644618,64.184881 c 0.04043,-0.108433 1.815335,-6.634257 3.944221,-14.501829 2.128888,-7.867572 4.976175,-18.378157 6.327305,-23.356855 1.35113,-4.978698 2.631374,-9.718412 2.844985,-10.532697 l 0.388385,-1.480519 3.647752,8.94e-4 3.647753,8.94e-4 2.743443,10.140663 c 1.508893,5.577366 3.160181,11.674505 3.669528,13.5492 0.509348,1.874695 2.298087,8.487814 3.974977,14.695821 1.676889,6.208006 3.080466,11.375291 3.119059,11.482856 0.06578,0.18333 -0.201657,0.195571 -4.27249,0.195571 h -4.342661 l -0.07639,-0.251449 c -0.04201,-0.138297 -0.621866,-2.539639 -1.28856,-5.336315 L 46.759757,53.70625 40.828753,53.67713 c -5.560569,-0.0273 -5.935569,-0.01683 -6.004067,0.167633 -0.04018,0.108214 -0.363374,1.428855 -0.7182,2.934758 -0.354824,1.505902 -0.90139,3.819237 -1.21459,5.140743 l -0.569454,2.402739 -4.375671,0.02952 c -4.12613,0.02784 -4.371479,0.01828 -4.302153,-0.167633 z M 45.066577,46.805353 c 0.0028,-0.182171 -4.164177,-18.006087 -4.223806,-18.067105 -0.125357,-0.128277 -0.256345,0.323195 -0.958319,3.30301 -2.772965,11.770985 -3.455511,14.745747 -3.400377,14.819973 0.03424,0.0461 1.978834,0.08382 4.321316,0.08382 3.314343,0 4.25953,-0.03099 4.261186,-0.139695 z"
       id="path30" />
    <rect
       style="fill:#ffffff;stroke-width:0.264583"
       id="rect28"
       width="31.1369"
       height="7.6171813"
       x="21.381561"
       y="74.16729" />
  </g>
</svg>
