<?xml version="1.0" encoding="UTF-8" standalone="no"?>
<svg
   xmlns:dc="http://purl.org/dc/elements/1.1/"
   xmlns:cc="http://creativecommons.org/ns#"
   xmlns:rdf="http://www.w3.org/1999/02/22-rdf-syntax-ns#"
   xmlns:svg="http://www.w3.org/2000/svg"
   xmlns="http://www.w3.org/2000/svg"
   xmlns:sodipodi="http://sodipodi.sourceforge.net/DTD/sodipodi-0.dtd"
   xmlns:inkscape="http://www.inkscape.org/namespaces/inkscape"
   width="8cm"
   height="8.6999998cm"
   viewBox="0 0 80 86.999996"
   version="1.1"
   id="svg8"
   inkscape:version="1.0.1 (3bc2e813f5, 2020-09-07)"
   sodipodi:docname="OTTO.svg">
  <defs
     id="defs2" />
  <sodipodi:namedview
     id="base"
     pagecolor="#ffffff"
     bordercolor="#666666"
     borderopacity="1.0"
     inkscape:pageopacity="0.0"
     inkscape:pageshadow="2"
     inkscape:zoom="1.979899"
     inkscape:cx="160.25232"
     inkscape:cy="181.27585"
     inkscape:document-units="mm"
     inkscape:current-layer="layer1"
     inkscape:document-rotation="0"
     showgrid="false"
     units="cm"
     inkscape:window-width="1920"
     inkscape:window-height="1013"
     inkscape:window-x="-9"
     inkscape:window-y="-9"
     inkscape:window-maximized="1" />
  <metadata
     id="metadata5">
    <rdf:RDF>
      <cc:Work
         rdf:about="">
        <dc:format>image/svg+xml</dc:format>
        <dc:type
           rdf:resource="http://purl.org/dc/dcmitype/StillImage" />
        <dc:title></dc:title>
      </cc:Work>
    </rdf:RDF>
  </metadata>
  <g
     inkscape:label="Layer 1"
     inkscape:groupmode="layer"
     id="layer1">
    <path
       style="fill:#000000;stroke-width:0.264583"
       d="m 13.562348,85.980461 c -0.984839,-0.774674 -0.984839,-2.36192 0,-3.136593 0.652816,-0.513506 1.035513,-0.54836 6.019271,-0.548211 l 5.32213,1.58e-4 -0.07826,-9.60548 c -0.07654,-9.394418 -0.06636,-9.616252 0.463479,-10.095749 0.541538,-0.490085 0.541395,-0.4905 -0.38476,-1.119841 -0.509577,-0.346265 -0.926502,-0.744344 -0.926502,-0.884618 0,-0.140274 -0.119063,-0.255045 -0.264583,-0.255045 -0.145521,0 -0.264584,0.242083 -0.264584,0.537961 0,0.295881 -0.297656,1.12536 -0.661458,1.843289 -0.837753,1.653225 -0.830606,2.194793 0.0441,3.341587 1.152216,1.510635 0.877552,4.066746 -0.436987,4.066746 -0.253214,0 -0.907663,-0.355449 -1.45433,-0.789885 -0.546668,-0.434437 -1.109534,-0.718446 -1.250814,-0.631131 -0.154689,0.0956 -0.185069,0.873738 -0.07637,1.956109 0.162779,1.620885 0.124577,1.853277 -0.389095,2.366949 -1.365704,1.365703 -3.422693,-0.468772 -3.654063,-3.258788 -0.105676,-1.274312 -0.01145,-1.625735 0.847892,-3.16239 1.098305,-1.963954 1.087675,-2.261018 -0.171126,-4.782005 -0.842721,-1.687708 -0.828518,-2.601221 0.04773,-3.070177 0.495302,-0.265078 0.490849,-0.295386 -0.135416,-0.921652 l -0.647561,-0.64756 V 49.635658 42.08718 l 0.76621,-0.857536 c 0.714766,-0.799962 0.901033,-0.864346 2.774269,-0.95894 1.64096,-0.08286 2.197679,-0.0026 3.045295,0.439235 l 1.037237,0.540637 0.308761,-0.745414 c 0.389673,-0.940755 1.503312,-2.012876 2.470348,-2.378247 0.409655,-0.154778 1.39192,-0.281416 2.182813,-0.281416 h 1.437984 V 35.758873 33.67225 l -1.19148,-0.178673 c -1.577676,-0.236588 -3.232454,-1.526064 -4.085741,-3.183787 -0.67483,-1.311034 -0.675904,-1.32426 -0.675904,-8.331932 0,-5.288549 0.08993,-7.273521 0.364786,-8.052023 0.489863,-1.387474 2.283436,-3.132455 3.634661,-3.536191 1.418486,-0.4238345 28.29798,-0.4643245 29.80831,-0.0449 1.26172,0.350384 2.69852,1.601251 3.44793,3.001749 0.5467,1.021652 0.58445,1.475185 0.66261,7.959463 0.0569,4.720018 -0.0151,7.226165 -0.22973,7.99257 -0.60307,2.153989 -3.12392,4.292221 -5.07867,4.307832 l -0.7276,0.0058 v 2.116667 2.116666 h 1.53143 c 2.56998,0 3.8501,0.869561 4.98716,3.387696 0.02,0.04422 0.43669,-0.163692 0.92605,-0.462031 1.0833,-0.66045 3.74192,-0.74167 5.14108,-0.157062 1.62428,0.678664 1.7373,1.314426 1.64785,9.269145 -0.0754,6.70176 -0.10069,6.99934 -0.66026,7.755593 -0.57589,0.778325 -0.57658,0.791245 -0.0662,1.253178 0.71532,0.647353 0.64643,1.463855 -0.278,3.295147 -1.01066,2.002099 -0.99857,2.835238 0.0661,4.560088 1.02548,1.661279 1.11171,3.200255 0.27079,4.83262 -1.08654,2.109131 -2.30002,2.520746 -3.33387,1.130843 -0.48899,-0.657411 -0.5083,-0.843302 -0.21813,-2.100371 0.25725,-1.114465 0.2517,-1.445774 -0.0289,-1.726401 -0.28664,-0.286645 -0.50726,-0.210527 -1.26362,0.43597 -1.61744,1.382511 -2.63613,0.896326 -2.63613,-1.258139 0,-0.756484 0.21602,-1.311177 0.79375,-2.038152 0.43656,-0.549343 0.79258,-1.13126 0.79116,-1.293151 -10e-4,-0.161893 -0.31267,-0.949192 -0.69167,-1.749557 -0.379,-0.800364 -0.76479,-1.714137 -0.85731,-2.030603 -0.1656,-0.566401 -0.18209,-0.56298 -1.0551,0.218813 l -0.88687,0.794208 0.56875,0.605412 c 0.56345,0.599765 0.56802,0.694584 0.49,10.166243 l -0.0788,9.560835 5.32213,-1.64e-4 c 4.98376,-1.51e-4 5.36645,0.0347 6.01927,0.548209 0.53773,0.422979 0.69714,0.78159 0.69714,1.568296 0,0.786707 -0.15941,1.145318 -0.69714,1.568297 -0.67815,0.533432 -0.97759,0.54837 -10.99223,0.54837 H 50.676458 l -0.67661,-0.676611 c -0.57403,-0.574035 -0.64943,-0.824727 -0.49731,-1.653646 0.0986,-0.537369 0.16459,-1.393753 0.1466,-1.903076 -0.018,-0.509323 -0.0911,-4.750506 -0.16253,-9.424852 -0.10566,-6.916648 -0.0598,-8.702167 0.2465,-9.591146 l 0.37635,-1.092335 h -7.34644 -7.346443 l 0.37946,1.101389 c 0.310743,0.90193 0.354733,2.638891 0.242923,9.591146 -0.07509,4.669366 -0.149639,8.906475 -0.165652,9.415798 -0.01601,0.509323 0.05157,1.365707 0.150182,1.903076 0.15212,0.828919 0.0767,1.079611 -0.49731,1.653646 l -0.676611,0.676611 H 24.554582 c -10.014639,0 -10.314086,-0.01495 -10.992234,-0.54837 z m 21.308589,-0.683263 c 0.60039,-0.543343 0.615103,-1.095213 0.04597,-1.724096 -0.40949,-0.452483 -1.085884,-0.483854 -10.432142,-0.483854 -8.732913,0 -10.046734,0.05248 -10.410034,0.415774 -0.554026,0.554024 -0.528389,1.609005 0.04725,1.944283 0.291408,0.16973 4.132721,0.272666 10.364062,0.27773 8.848876,0.0072 9.952461,-0.03849 10.384896,-0.429837 z m 36.580583,0.02212 c 0.53102,-0.531026 0.53102,-1.283258 0,-1.814284 -0.36333,-0.363345 -1.67913,-0.415785 -10.43214,-0.415785 -8.753022,0 -10.068822,0.05244 -10.432152,0.415774 -0.22867,0.228674 -0.41577,0.636889 -0.41577,0.907142 0,0.270254 0.1871,0.678469 0.41577,0.907143 0.36333,0.363334 1.67913,0.415774 10.432152,0.415774 8.75301,0 10.06881,-0.05244 10.43214,-0.415774 z M 34.778782,79.961931 c -0.09238,-1.93227 -0.234045,-2.542553 -0.823772,-3.548848 -1.797624,-3.067412 -5.301461,-3.109635 -7.184906,-0.08658 -0.674661,1.082879 -0.794641,1.56832 -0.892257,3.610054 l -0.112784,2.358938 h 4.562645 4.562644 z m 24.870838,0 c -0.0924,-1.93227 -0.23405,-2.542553 -0.82377,-3.548848 -0.89253,-1.522973 -2.13833,-2.319668 -3.62731,-2.319668 -1.488972,0 -2.734782,0.796695 -3.627302,2.319668 -0.58973,1.006295 -0.73139,1.616578 -0.82377,3.548848 l -0.11157,2.333567 h 4.562642 4.56265 z M 35.354791,70.256957 c 0,-8.498531 0.444841,-7.805209 -5.00788,-7.805209 h -3.949546 l -0.54837,0.69714 c -0.522095,0.663737 -0.547624,1.009201 -0.53281,7.209896 0.0123,5.149117 0.08155,6.407258 0.330729,6.008902 0.737497,-1.179018 1.95381,-2.377916 2.749933,-2.710559 1.025703,-0.428564 2.675488,-0.462745 3.699574,-0.07665 0.968052,0.364972 2.34506,1.702202 2.743591,2.664343 0.172916,0.417457 0.359482,0.759013 0.414586,0.759013 0.0551,0 0.100193,-3.036093 0.100193,-6.746874 z m 16.369457,4.531476 c 1.30491,-1.424908 3.568542,-1.89869 5.405152,-1.131306 0.79613,0.332643 2.01244,1.531541 2.74994,2.710559 0.24918,0.398356 0.31843,-0.859785 0.33073,-6.008902 0.0148,-6.200695 -0.0107,-6.546159 -0.53281,-7.209896 l -0.54837,-0.69714 h -3.94955 c -5.457652,0 -5.010622,-0.704122 -4.997292,7.871354 0.01,6.369434 0.0378,6.76134 0.42831,6.019271 0.22975,-0.436562 0.73099,-1.135835 1.11389,-1.55394 z M 18.688192,72.37103 c 0.252014,-0.303657 0.266328,-0.729215 0.05968,-1.774333 -0.515584,-2.607585 0.521504,-3.47645 2.491826,-2.087639 0.641287,0.452022 1.222028,0.821857 1.290534,0.821857 0.06851,0 0.124556,-0.515027 0.124556,-1.144506 0,-0.878705 -0.153616,-1.288817 -0.661458,-1.765911 -0.879873,-0.826598 -0.874494,-2.243018 0.01518,-3.998716 0.413333,-0.815671 0.644994,-1.661673 0.595313,-2.174015 -0.07139,-0.736172 -0.194561,-0.854903 -1.007372,-0.971018 l -0.926042,-0.132292 -0.0751,-2.844271 -0.0751,-2.844271 H 19.61207 18.703931 l -0.0751,2.844271 -0.0751,2.844271 -0.840192,0.08144 c -1.449304,0.140483 -1.524499,0.55999 -0.488034,2.722729 0.512243,1.068871 0.931351,2.232977 0.931351,2.5869 0,0.353922 -0.430583,1.413449 -0.956852,2.354506 -0.801116,1.432528 -0.935991,1.896078 -0.828686,2.848083 0.141293,1.253553 1.104761,3.032384 1.642429,3.032384 0.188594,0 0.492086,-0.17976 0.674426,-0.399468 z M 67.90567,71.910602 c 0.29069,-0.472942 0.65533,-1.323522 0.81032,-1.89018 0.25949,-0.94873 0.20375,-1.179105 -0.70421,-2.910417 -1.1862,-2.261843 -1.20195,-3.030691 -0.10654,-5.200687 0.99919,-1.979382 0.94941,-2.457188 -0.27428,-2.632569 l -0.92304,-0.132292 -0.0751,-2.844271 -0.0751,-2.844271 h -1.04938 -1.04939 v 2.910417 2.910417 h -0.74083 c -1.56858,0 -1.71683,0.819171 -0.58229,3.217388 0.9902,2.093119 0.99023,2.548287 2.1e-4,3.79407 -0.80575,1.013901 -1.0836,2.567762 -0.52129,2.915287 0.14986,0.09262 0.68978,-0.198011 1.19983,-0.645842 1.12603,-0.988658 1.81307,-1.030981 2.39205,-0.147349 0.36569,0.558112 0.39239,0.892323 0.16368,2.04902 -0.44482,2.249704 0.49728,3.140221 1.53536,1.451279 z M 59.52254,61.048311 c 0.40059,-0.26257 0.96035,-0.857882 1.24389,-1.322916 0.48282,-0.791843 0.51561,-1.387338 0.51654,-9.380109 l 9.9e-4,-8.534588 -18.719272,0.06792 -18.719272,0.06792 -0.07878,8.069791 c -0.08159,8.358111 0.03297,9.57153 0.98502,10.433124 1.296329,1.17316 1.677477,1.196813 18.287942,1.134938 14.681992,-0.05469 15.804182,-0.09119 16.482942,-0.536083 z M 23.070645,58.016909 c -0.08805,-0.08805 -0.305938,-0.01423 -0.484198,0.164017 -0.255754,0.255755 -0.240875,0.376114 0.07056,0.570707 0.281152,0.175672 0.420415,0.128497 0.484197,-0.164018 0.04925,-0.225841 0.0175,-0.482658 -0.07055,-0.570706 z m 39.651385,0.493813 c 0.0805,-0.130271 -0.0315,-0.305128 -0.24896,-0.38857 -0.24016,-0.09215 -0.39536,7.94e-4 -0.39536,0.236858 0,0.427934 0.41344,0.525285 0.64432,0.151712 z M 17.892291,55.307999 v -2.645834 l 1.785938,-2.59e-4 1.785937,-2.57e-4 -0.09094,2.64609 c -0.09733,2.832137 0.06052,3.140477 0.997777,1.948953 0.52275,-0.66457 0.548371,-1.017683 0.548371,-7.558019 0,-8.596883 -0.02252,-8.655012 -3.358684,-8.66976 -1.637661,-0.0072 -2.007142,0.08076 -2.645833,0.630137 l -0.742358,0.638548 v 7.322328 7.322327 l 0.624624,0.505788 c 0.343543,0.278186 0.730496,0.505791 0.859896,0.505791 0.129399,0 0.235271,-1.190625 0.235272,-2.645833 z m 47.568239,-2.591562 1.77655,0.07802 0.0757,2.579688 c 0.0417,1.418828 0.18184,2.579687 0.31153,2.579687 0.12969,0 0.48256,-0.313714 0.78417,-0.69714 0.52391,-0.666052 0.54837,-1.014656 0.54837,-7.817233 v -7.120096 l -0.64944,-0.649431 c -0.5739,-0.573908 -0.87988,-0.649433 -2.63107,-0.649433 -1.71285,0 -2.08235,0.08656 -2.72401,0.638122 l -0.74236,0.638122 -0.084,6.435183 c -0.093,7.122482 -0.0169,7.93043 0.82635,8.773644 l 0.58056,0.580554 0.0755,-2.723854 0.0755,-2.723854 z M 61.01938,40.923889 c 0,-0.570269 -0.96986,-1.654625 -1.78008,-1.99023 -0.53979,-0.223589 -5.159452,-0.28689 -17.095032,-0.234251 l -16.355358,0.07213 -0.905602,0.988301 c -0.498081,0.543568 -0.9056,1.109114 -0.9056,1.25677 0,0.179015 6.171303,0.26847 18.52083,0.26847 15.473412,0 18.520842,-0.05943 18.520842,-0.361193 z m -6.08542,-5.329965 v -1.986991 l -12.369272,0.06876 -12.369272,0.06876 0.04772,1.852083 c 0.02625,1.018646 0.05601,1.881849 0.06615,1.918229 0.01013,0.03638 5.554832,0.06615 12.321552,0.06615 H 54.93396 Z M 30.592291,24.748625 v -8.069792 h -3.175 -3.175 l 0.0016,5.754688 c 7.93e-4,3.165078 0.124449,6.197475 0.274751,6.738659 0.576196,2.074688 2.616396,3.614068 4.817001,3.634542 l 1.25666,0.01169 z m 23.081227,-0.463021 0.0698,-8.532812 3.521092,-0.07393 c 3.50135,-0.07352 3.52007,-0.07723 3.33949,-0.661458 -0.44528,-1.440616 -1.26551,-2.626256 -2.28242,-3.29921 L 57.22155,10.990291 H 42.650148 28.078739 l -1.062878,0.609412 c -1.215536,0.69694 -2.158508,1.93763 -2.403433,3.16225 l -0.168452,0.842267 3.40488,0.07429 3.404883,0.07429 0.06981,8.532812 0.06981,8.532812 h 11.105169 11.10517 z m -12.92675,4.44855 c -0.99062,-0.431141 -2.21698,-1.958231 -2.21698,-2.760625 0,-0.57109 0.0427,-0.576453 4.01316,-0.504193 2.54902,0.04639 4.04742,0.176163 4.10706,0.355698 0.14873,0.447628 -1.03592,2.028426 -2.01408,2.687606 -1.02373,0.689896 -2.60593,0.780013 -3.88916,0.221514 z m 3.84553,-1.149921 c 0.3764,-0.280741 0.72286,-0.706181 0.76991,-0.94542 0.0752,-0.382548 -0.26761,-0.43498 -2.84427,-0.43498 -1.61139,0 -2.92981,0.09679 -2.92981,0.215082 0,0.277183 1.33484,1.523133 1.85208,1.728751 0.69628,0.276786 2.44456,-0.03572 3.15209,-0.563433 z m -9.421192,-6.516867 c -0.635463,-0.546603 -0.742357,-0.835636 -0.742357,-2.007283 0,-1.171646 0.106894,-1.46068 0.742357,-2.007283 1.546172,-1.329963 4.086032,-0.594215 4.567232,1.323038 0.64311,2.56235 -2.53799,4.43701 -4.567232,2.691528 z m 11.481342,-0.0422 c -1.81088,-1.810881 -0.67563,-4.610912 1.86946,-4.610912 0.93053,0 1.31466,0.153574 1.93448,0.773397 1.73641,1.736406 0.53686,4.518269 -1.94829,4.518269 -0.90933,0 -1.32877,-0.153876 -1.85565,-0.680754 z M 58.29564,32.122701 c 0.3898,-0.291029 1.07281,-0.978702 1.5178,-1.528157 l 0.80906,-0.999013 0.0793,-6.458347 0.0793,-6.458347 h -3.18814 -3.188152 v 8.101592 8.101592 l 1.591062,-0.115086 c 1.03475,-0.07485 1.83886,-0.300101 2.29979,-0.644234 z"
       id="path24" />
  </g>
</svg>
