<?xml version="1.0" encoding="UTF-8" standalone="no"?>
<svg
   xmlns:dc="http://purl.org/dc/elements/1.1/"
   xmlns:cc="http://creativecommons.org/ns#"
   xmlns:rdf="http://www.w3.org/1999/02/22-rdf-syntax-ns#"
   xmlns:svg="http://www.w3.org/2000/svg"
   xmlns="http://www.w3.org/2000/svg"
   xmlns:sodipodi="http://sodipodi.sourceforge.net/DTD/sodipodi-0.dtd"
   xmlns:inkscape="http://www.inkscape.org/namespaces/inkscape"
   width="8cm"
   height="8.6999998cm"
   viewBox="0 0 80 86.999996"
   version="1.1"
   id="svg8"
   inkscape:version="1.0.1 (3bc2e813f5, 2020-09-07)"
   sodipodi:docname="WORDS.svg">
  <defs
     id="defs2" />
  <sodipodi:namedview
     id="base"
     pagecolor="#ffffff"
     bordercolor="#666666"
     borderopacity="1.0"
     inkscape:pageopacity="0.0"
     inkscape:pageshadow="2"
     inkscape:zoom="1.979899"
     inkscape:cx="248.74791"
     inkscape:cy="142.69104"
     inkscape:document-units="mm"
     inkscape:current-layer="layer1"
     inkscape:document-rotation="0"
     showgrid="false"
     units="cm"
     inkscape:window-width="1920"
     inkscape:window-height="1013"
     inkscape:window-x="-9"
     inkscape:window-y="-9"
     inkscape:window-maximized="1" />
  <metadata
     id="metadata5">
    <rdf:RDF>
      <cc:Work
         rdf:about="">
        <dc:format>image/svg+xml</dc:format>
        <dc:type
           rdf:resource="http://purl.org/dc/dcmitype/StillImage" />
        <dc:title></dc:title>
      </cc:Work>
    </rdf:RDF>
  </metadata>
  <g
     inkscape:label="Layer 1"
     inkscape:groupmode="layer"
     id="layer1">
    <path
       style="fill:#000000;stroke-width:0.131129"
       d="m 19.23581,75.019932 c 0,-0.417376 0.279592,-1.177878 1.325322,-3.604929 l 0.33325,-0.773444 H 20.065096 19.23581 v -0.408242 -0.408243 l 1.310262,0.03833 1.310262,0.03833 -0.02503,0.470792 c -0.01377,0.258936 -0.29073,1.076098 -0.615472,1.815914 -0.898756,2.047522 -0.957378,2.186726 -0.957378,2.273408 0,0.04431 0.373904,0.08056 0.830898,0.08056 h 0.830897 v 0.470793 0.470792 H 20.57803 19.23581 Z m 0.411204,-10.775866 c -0.570561,-0.420527 -0.677258,-0.881542 -0.729189,-3.150653 -0.05159,-2.254023 0.0047,-2.506183 0.535548,-2.399432 0.206227,0.04147 0.236411,0.262319 0.293759,2.149379 0.05535,1.821253 0.09656,2.141086 0.307431,2.386108 0.309145,0.359204 0.735723,0.36166 1.041606,0.006 0.208154,-0.242031 0.240804,-0.534595 0.25895,-2.320335 0.01142,-1.123863 0.0282,-2.088783 0.03729,-2.144269 0.0091,-0.05549 0.189095,-0.100887 0.400015,-0.100887 h 0.383491 v 2.156515 c 0,2.364961 -0.09924,2.834652 -0.704816,3.335899 -0.427175,0.35358 -1.396289,0.396974 -1.82408,0.08168 z m 9.001705,0.104999 c -0.119224,-0.202991 -1.231761,-5.076235 -1.231761,-5.395478 0,-0.257234 0.05896,-0.294568 0.408226,-0.258506 0.455305,0.04701 0.399166,-0.106755 1.01011,2.766707 0.161309,0.758689 0.332466,1.333729 0.38035,1.277866 0.04788,-0.05586 0.241767,-0.8582 0.430854,-1.782971 0.435282,-2.128839 0.496864,-2.286707 0.89202,-2.286707 0.173126,0 0.340583,0.0454 0.372126,0.100884 0.05398,0.09496 -0.735984,3.691567 -1.100537,5.010578 -0.154666,0.559603 -0.20217,0.6084 -0.629195,0.646308 -0.254044,0.02255 -0.493531,-0.01286 -0.532193,-0.07868 z m 8.56157,-1.004791 c -0.419128,-2.09737 -0.814544,-4.477435 -0.759812,-4.573414 0.03164,-0.05549 0.225609,-0.100884 0.431041,-0.100884 0.430464,0 0.387619,-0.127336 0.768471,2.283953 0.145824,0.923257 0.285029,1.699582 0.309342,1.725167 0.07463,0.07854 0.168648,-0.3833 0.38938,-1.912791 0.28659,-1.985846 0.343498,-2.123845 0.854128,-2.07123 l 0.409138,0.04216 0.32597,1.840151 c 0.179282,1.012081 0.363226,1.878536 0.408762,1.925454 0.07891,0.0813 0.191797,-0.498716 0.536559,-2.756764 0.152571,-0.99928 0.157939,-1.00924 0.56628,-1.050992 0.26714,-0.02731 0.412248,0.01739 0.412248,0.127011 0,0.09304 -0.142618,0.929168 -0.316927,1.858065 -0.174311,0.928896 -0.391881,2.112617 -0.483491,2.630489 l -0.166563,0.941585 -0.492083,0.0428 c -0.270645,0.02354 -0.538234,-0.0067 -0.59464,-0.06726 -0.05641,-0.06053 -0.193509,-0.6851 -0.304671,-1.387926 -0.256018,-1.618672 -0.323563,-1.93064 -0.400483,-1.849698 -0.0542,0.05703 -0.56165,2.962363 -0.563885,3.228448 -5.12e-4,0.05549 -0.255781,0.100884 -0.567365,0.100884 H 37.40517 Z m 9.892555,0.845273 c 0,-0.07147 0.224278,-0.738518 0.498398,-1.482335 l 0.498397,-1.352396 -0.416214,-1.039767 c -0.687317,-1.717029 -0.683941,-1.669767 -0.115732,-1.620272 0.468792,0.04083 0.500607,0.07583 0.833247,0.916619 0.325362,0.822387 0.353144,0.854256 0.469059,0.538048 0.548584,-1.496508 0.537024,-1.479468 1.003693,-1.479468 0.510715,0 0.518024,-0.08464 -0.138393,1.602769 l -0.432265,1.111202 0.313517,0.828837 c 0.172435,0.455861 0.396438,1.019577 0.497785,1.252703 0.294334,0.677045 0.243891,0.854 -0.243443,0.854 -0.414812,0 -0.439324,-0.03129 -0.812741,-1.037471 l -0.385028,-1.037471 -0.366651,1.037471 c -0.354746,1.003785 -0.380239,1.037471 -0.785139,1.037471 -0.23017,0 -0.41849,-0.05847 -0.41849,-0.12994 z m 9.715112,-0.978791 c 0,-1.003074 -0.06308,-1.3053 -0.578767,-2.772857 -0.318322,-0.905894 -0.545022,-1.704534 -0.503777,-1.774758 0.108282,-0.184363 0.645706,-0.156983 0.794216,0.04046 0.06956,0.09248 0.255563,0.582101 0.413347,1.088054 0.157783,0.505953 0.32899,0.869136 0.380459,0.807073 0.05147,-0.06206 0.196798,-0.476024 0.322954,-0.919914 0.126157,-0.44389 0.286031,-0.882736 0.355277,-0.975213 0.144329,-0.192753 0.684343,-0.226568 0.788417,-0.04937 0.06251,0.106426 -0.40025,1.578487 -0.829511,2.638729 -0.08986,0.221945 -0.196755,0.978576 -0.237548,1.681402 l -0.07417,1.277866 -0.415449,0.04215 -0.415449,0.04215 z M 30.722416,52.152805 c -0.253535,-0.181287 -0.492116,-0.415016 -0.530182,-0.519397 -0.05163,-0.141587 -0.233899,-0.173133 -0.717696,-0.124217 -1.353108,0.136813 -1.912366,-0.543088 -2.026213,-2.463314 -0.08208,-1.384417 0.173012,-2.288644 0.812273,-2.87926 0.381349,-0.352332 0.543909,-0.409809 1.159043,-0.409809 0.652389,0 0.752772,0.0416 1.138335,0.47179 0.293691,0.327679 0.453961,0.66665 0.524693,1.109725 0.164315,1.029282 0.104743,2.240429 -0.143895,2.925509 l -0.231437,0.637686 0.475982,0.458849 c 0.304979,0.294002 0.448719,0.533609 0.400098,0.66694 -0.04174,0.114448 -0.07588,0.263668 -0.07588,0.331599 0,0.2154 -0.30912,0.134253 -0.785116,-0.206101 z M 29.924822,50.25748 c 0.469111,-0.753377 0.449355,-2.749937 -0.03276,-3.310511 -0.320592,-0.372768 -0.910829,-0.278916 -1.248078,0.198453 -0.36494,0.516564 -0.392041,2.527115 -0.04165,3.089832 0.312849,0.502425 1.016118,0.514245 1.322486,0.02223 z m -10.342261,1.199852 c -0.0501,-0.05272 -0.09109,-1.325483 -0.09109,-2.828367 v -2.73252 l 0.330263,-0.08722 c 0.595818,-0.157357 1.614154,0.04933 1.941816,0.394114 0.959808,1.009979 0.430843,3.102718 -0.828712,3.278615 l -0.538004,0.07513 -0.03723,0.958246 c -0.0355,0.913739 -0.0523,0.960095 -0.361591,0.998051 -0.178399,0.02189 -0.365351,-0.0033 -0.415449,-0.05605 z m 1.538748,-3.043213 c 0.203961,-0.171709 0.208772,-1.341353 0.0064,-1.554311 -0.08437,-0.08878 -0.285701,-0.161415 -0.447407,-0.161415 -0.280892,0 -0.29401,0.04542 -0.29401,1.017906 0,0.993423 0.0069,1.015674 0.287619,0.925123 0.15819,-0.05103 0.359523,-0.153317 0.447406,-0.227303 z m 16.92638,2.951323 c -0.155916,-0.197687 -0.208018,-4.700952 -0.06154,-5.319408 0.07202,-0.304111 0.113411,-0.314238 1.092808,-0.267437 0.928053,0.04435 1.045081,0.08183 1.32516,0.424465 0.449687,0.55012 0.436865,1.65767 -0.02589,2.236369 -0.255814,0.319908 -0.29983,0.458739 -0.189711,0.598359 0.141224,0.179061 0.77847,2.03373 0.77847,2.265697 0,0.06549 -0.212894,0.100286 -0.473098,0.07733 -0.464076,-0.04095 -0.477715,-0.05842 -0.715229,-0.916078 -0.249004,-0.899155 -0.542602,-1.387705 -0.783714,-1.304117 -0.07607,0.02637 -0.165626,0.55201 -0.201076,1.180254 -0.05758,1.020409 -0.09037,1.136682 -0.330763,1.172824 -0.146764,0.02207 -0.333701,-0.04465 -0.415414,-0.148253 z m 1.484716,-3.262298 c 0.194283,-0.143195 0.284104,-0.347322 0.284104,-0.645658 0,-0.535525 -0.195772,-0.759093 -0.664718,-0.759093 -0.347273,0 -0.357925,0.02135 -0.357925,0.717398 0,0.954887 0.165974,1.109357 0.738539,0.687353 z m 8.497209,3.237147 c -0.356728,-0.163152 -0.415448,-0.25747 -0.415448,-0.667296 0,-0.524743 0.08302,-0.575801 0.454931,-0.279795 0.319394,0.254204 0.876829,0.260654 1.072618,0.01242 0.314753,-0.399076 0.101736,-0.920328 -0.601101,-1.4709 -0.485488,-0.380309 -0.711325,-0.666077 -0.81548,-1.031889 -0.184255,-0.647135 -0.05409,-1.371647 0.331068,-1.842832 0.255886,-0.313034 0.40258,-0.370439 0.946639,-0.370439 0.732295,0 0.874092,0.101774 0.989769,0.710393 0.07144,0.375837 0.04745,0.432961 -0.181804,0.432961 -0.145252,0 -0.299647,-0.06053 -0.343099,-0.134512 -0.119333,-0.203177 -0.650704,-0.161213 -0.82952,0.06551 -0.261701,0.331814 -0.03584,0.838205 0.569251,1.276277 0.768244,0.556193 0.963336,0.888051 0.963336,1.638656 0,0.862921 -0.172717,1.274699 -0.667923,1.592407 -0.488995,0.313724 -0.896505,0.332824 -1.473237,0.06905 z m 9.026271,-0.102112 c -0.0098,-0.09248 -0.02413,-1.136628 -0.03196,-2.320335 l -0.01423,-2.152194 -0.511322,-0.06726 c -0.467748,-0.06152 -0.514734,-0.104509 -0.551378,-0.50442 l -0.04006,-0.437165 h 1.542064 1.542065 v 0.377702 c 0,0.334804 -0.0617,0.392095 -0.54328,0.504421 l -0.543279,0.126719 -0.01645,2.152194 c -0.0091,1.183707 -0.02343,2.227858 -0.03196,2.320335 -0.0086,0.09352 -0.1857,0.16814 -0.399,0.16814 -0.212116,0 -0.391416,-0.07514 -0.401224,-0.16814 z M 19.448003,40.140926 c -0.03338,-0.129468 -0.05164,-1.385476 -0.04057,-2.791128 l 0.02013,-2.555731 0.415449,-0.04215 0.415449,-0.04215 v 1.08462 c 0,0.596541 0.04601,1.08462 0.102236,1.08462 0.05623,0 0.326603,-0.484244 0.600831,-1.076098 0.473398,-1.021715 0.519912,-1.076097 0.920407,-1.076097 0.231997,0 0.421813,0.06872 0.421813,0.152718 0,0.084 -0.265142,0.674863 -0.589205,1.313039 l -0.589205,1.160321 0.589205,1.318034 c 0.324063,0.724919 0.589205,1.405192 0.589205,1.511717 0,0.12935 -0.139793,0.193682 -0.420867,0.193682 -0.404543,0 -0.439844,-0.04434 -0.910229,-1.143354 -0.269149,-0.628844 -0.543809,-1.143353 -0.610353,-1.143353 -0.06655,0 -0.112767,0.408581 -0.102716,0.907957 0.02863,1.422266 0.0405,1.37875 -0.375999,1.37875 -0.248683,0 -0.39531,-0.07924 -0.435574,-0.235396 z m 8.991598,-2.597882 v -2.833278 l 0.415449,0.04215 0.415449,0.04215 v 2.286707 c 0,1.368914 0.05131,2.32637 0.127831,2.385531 0.07031,0.05435 0.372306,0.09975 0.671109,0.100884 0.517988,0.002 0.54328,0.02085 0.54328,0.405596 v 0.403537 H 29.52616 28.439601 Z m 8.594003,0.04215 0.03455,-2.791127 0.607688,-0.04102 c 0.712175,-0.04807 0.673445,-0.113987 1.194922,2.033627 0.182988,0.753608 0.374045,1.416852 0.42457,1.473875 0.05053,0.05702 0.280941,-0.608811 0.512037,-1.479633 0.551923,-2.07978 0.536575,-2.054106 1.228024,-2.054106 h 0.570739 v 2.824755 2.824756 h -0.38349 -0.383491 V 38.33622 c 0,-1.122055 -0.03504,-2.003225 -0.07787,-1.958155 -0.04283,0.04507 -0.292414,0.947982 -0.554627,2.006472 l -0.476753,1.924529 H 39.296577 38.863256 L 38.42471,38.392267 c -0.241201,-1.054239 -0.486909,-1.916798 -0.546017,-1.916798 -0.05911,0 -0.10747,0.877692 -0.10747,1.950426 v 1.950427 h -0.386085 -0.386085 z m 10.254115,2.619024 c -0.03452,-0.09466 -0.0471,-1.350665 -0.02795,-2.791128 l 0.03482,-2.619023 h 0.559756 0.559757 l 0.493241,1.345122 c 0.832315,2.269809 0.807091,2.262096 0.87994,0.269024 l 0.06391,-1.748658 h 0.319576 0.319576 l 0.03468,2.747793 c 0.03663,2.902844 0.02542,2.962426 -0.558144,2.966914 -0.39929,0.0031 -0.588656,-0.314536 -1.201768,-2.015623 -0.306645,-0.850789 -0.604768,-1.604393 -0.662497,-1.674676 -0.05773,-0.07028 -0.104961,0.731746 -0.104961,1.782286 v 1.910073 h -0.323588 c -0.177974,0 -0.351831,-0.07745 -0.38635,-0.172104 z m 9.097516,-0.108798 c -0.514365,-0.425747 -0.718328,-0.96287 -0.802672,-2.113782 -0.102298,-1.395925 0.162683,-2.390036 0.792061,-2.971523 0.386237,-0.356846 0.552742,-0.417816 1.14104,-0.417816 0.899387,0 1.390551,0.406969 1.665052,1.379631 0.412609,1.46203 0.178346,3.051312 -0.572137,3.88147 -0.437837,0.484321 -0.52482,0.522922 -1.178354,0.522922 -0.522005,0 -0.793931,-0.0731 -1.04499,-0.280902 z m 1.757682,-1.10283 c 0.304999,-0.429867 0.362822,-2.206851 0.094,-2.88874 -0.281315,-0.713577 -1.007569,-0.774341 -1.469327,-0.122938 -0.219003,0.308948 -0.269209,0.572347 -0.269209,1.412378 0,0.585936 0.07791,1.227006 0.180118,1.482019 0.304773,0.760437 0.970271,0.813735 1.464419,0.117281 z M 19.611852,27.303537 c -0.01074,-0.06074 -0.0119,-4.226939 -0.0014,-4.985473 l 0.0088,-0.638933 h 1.072882 c 0.83575,0 1.089144,0.04459 1.146462,0.201768 0.149635,0.410323 -0.05582,0.591266 -0.717978,0.632315 -0.621288,0.03851 -0.650278,0.05761 -0.673686,0.443783 -0.01345,0.221945 0.0028,0.566963 0.03603,0.766706 0.05423,0.325554 0.121865,0.367351 0.652991,0.403536 0.537026,0.03659 0.596221,0.07431 0.632274,0.402961 0.03832,0.349271 0.01484,0.364097 -0.639152,0.403536 l -0.678929,0.04094 -0.0095,1.143353 -0.0095,1.143354 -0.4059,0.04215 c -0.223245,0.02318 -0.409251,0.02318 -0.413349,0 z m 8.827749,-0.197175 c -0.804517,-0.604788 -1.086657,-1.431574 -0.995966,-2.918591 0.111075,-1.821281 0.876776,-2.711986 2.240332,-2.606079 0.750928,0.05832 1.184412,0.369476 1.184412,0.850165 0,0.418248 -0.19844,0.515312 -0.53954,0.263908 -0.428796,-0.316039 -1.186127,-0.269444 -1.513043,0.09309 -0.385818,0.427855 -0.504025,0.81737 -0.504025,1.660852 0,1.293002 0.467978,2.007302 1.252668,1.912013 0.320331,-0.0389 0.347998,-0.09282 0.38385,-0.748109 l 0.03864,-0.706189 H 29.53284 c -0.419321,0 -0.454087,-0.0309 -0.454087,-0.403536 V 24.10035 h 0.822284 c 0.674562,0 0.833293,0.04229 0.883565,0.235396 0.115106,0.442159 -0.0076,2.6048 -0.15669,2.761688 -0.08124,0.08549 -0.534944,0.176526 -1.008225,0.202301 -0.672646,0.03664 -0.930278,-0.0056 -1.180086,-0.193373 z m 9.294881,0.13878 c -0.0501,-0.05272 -0.09109,-1.356901 -0.09109,-2.898187 v -2.802336 h 0.381056 c 0.439835,0 0.521133,0.209055 0.496942,1.277865 -0.0235,1.038251 -0.04222,1.008842 0.642291,1.008842 0.721499,0 0.771148,-0.07184 0.69944,-1.012099 -0.07778,-1.019919 0.01607,-1.274608 0.469688,-1.274608 h 0.383599 l -0.0345,2.858383 -0.0345,2.858384 h -0.383491 -0.383491 l -0.0018,-1.21061 -0.0018,-1.210609 H 39.18165 38.486427 l -0.0061,1.210609 c -0.006,1.194008 -0.01052,1.211156 -0.330431,1.250413 -0.178399,0.02189 -0.365351,-0.0033 -0.415449,-0.05605 z m 18.751623,-0.01944 c -0.185576,-0.130897 -0.320407,-0.734522 -0.206109,-0.922726 0.0498,-0.08201 0.234363,-0.142036 0.41013,-0.133394 l 0.319576,0.01571 0.03498,-2.320335 0.03498,-2.320335 h 0.452135 0.452136 l -0.03971,2.567656 -0.0397,2.567656 -0.358661,0.324355 c -0.355326,0.321338 -0.789482,0.412046 -1.059749,0.221412 z m -8.203423,-2.822696 0.03455,-2.791127 0.415449,-0.04215 0.415449,-0.04215 v 2.833278 2.833278 h -0.45 -0.450001 z M 18.799569,16.18314 c -0.06863,-0.116845 1.124983,-5.29197 1.282363,-5.559926 0.101122,-0.172173 0.899843,-0.126051 1.031218,0.05955 0.232035,0.327805 1.346619,5.370991 1.217142,5.507236 -0.06869,0.07228 -0.258356,0.111166 -0.421476,0.08641 -0.228757,-0.03472 -0.339575,-0.191127 -0.484592,-0.683948 l -0.188013,-0.638933 h -0.676756 -0.676756 l -0.176246,0.638933 c -0.144854,0.525127 -0.234468,0.646296 -0.503119,0.680269 -0.17978,0.02274 -0.361474,-0.01758 -0.403765,-0.08958 z m 2.225867,-2.245533 c 0,-0.309619 -0.425047,-1.94446 -0.488254,-1.877949 -0.0441,0.0464 -0.174029,0.504644 -0.28874,1.018321 l -0.208567,0.933959 h 0.49278 c 0.27103,0 0.492781,-0.03345 0.492781,-0.07433 z m 17.818044,2.236396 c -0.148481,-0.06708 -0.389681,-0.28212 -0.536002,-0.477861 -0.449745,-0.601643 -0.573662,-1.228936 -0.50714,-2.567222 0.07005,-1.409236 0.288377,-1.950017 0.987386,-2.445701 0.526202,-0.373143 0.96582,-0.383509 1.50815,-0.03556 0.341863,0.219333 0.415448,0.350284 0.415448,0.739315 0,0.260023 -0.02547,0.472769 -0.05661,0.472769 -0.03113,0 -0.25924,-0.125804 -0.5069,-0.279565 -0.279127,-0.173298 -0.549686,-0.24637 -0.711777,-0.192236 -0.888688,0.296802 -1.028257,3.205047 -0.181818,3.788644 0.299945,0.206806 0.3535,0.20678 0.7663,-3.63e-4 0.244099,-0.122483 0.499389,-0.2227 0.56731,-0.2227 0.224458,0 0.128217,0.760879 -0.12698,1.003901 -0.286491,0.272822 -1.217068,0.397435 -1.617369,0.216579 z m -10.95781,-0.09955 c -0.04687,-0.04932 -0.08522,-1.252518 -0.08522,-2.673772 0,-3.048084 -0.03907,-2.958588 1.244236,-2.850192 0.722203,0.061 0.902482,0.128389 1.148443,0.429282 0.36158,0.442335 0.410641,1.54273 0.0841,1.886337 -0.191656,0.201675 -0.185086,0.243795 0.08527,0.546622 0.208744,0.233813 0.309644,0.540178 0.351083,1.066002 0.05516,0.699959 0.03501,0.762245 -0.392066,1.211644 -0.434317,0.457018 -0.483786,0.473752 -1.400426,0.473752 -0.522614,0 -0.988556,-0.04035 -1.035426,-0.08967 z m 1.759189,-0.928774 c 0.110483,-0.116257 0.200877,-0.38432 0.200877,-0.595697 0,-0.493258 -0.301777,-0.807073 -0.776113,-0.807073 -0.372332,0 -0.374361,0.0044 -0.374361,0.807073 0,0.802699 0.002,0.807073 0.374361,0.807073 0.205899,0 0.464755,-0.09512 0.575236,-0.211376 z m -0.302041,-2.349087 c 0.180059,-0.101402 0.247257,-0.282901 0.247257,-0.667829 0,-0.384927 -0.0672,-0.566426 -0.247257,-0.667828 -0.524361,-0.295297 -0.647556,-0.185306 -0.647556,0.578154 0,0.91961 0.116893,1.05635 0.647556,0.757503 z m 17.878885,2.997628 c -0.04564,-1.882173 -0.05274,-4.85574 -0.01204,-5.044206 0.04246,-0.196604 0.197923,-0.235396 0.943378,-0.235396 1.7578,0 2.330857,0.678368 2.329419,2.757499 -7.67e-4,1.036147 -0.04626,1.295913 -0.316047,1.802537 -0.426529,0.800966 -0.974929,1.089474 -2.070887,1.089474 -0.856078,0 -0.864941,-0.0038 -0.873821,-0.369908 z m 1.728955,-0.655233 c 0.493914,-0.19944 0.786763,-1.45147 0.593764,-2.538544 C 49.403994,11.80948 48.92326,11.283768 48.399075,11.34794 l -0.334995,0.04101 -0.01071,1.815914 c -0.0059,0.998753 0.01133,1.861312 0.03825,1.916798 0.05932,0.122237 0.573542,0.132609 0.859037,0.01733 z m 7.317965,0.940306 c -0.0494,-0.05198 -0.08982,-1.318824 -0.08982,-2.815204 0,-2.356826 0.02704,-2.731608 0.202201,-2.802336 0.11121,-0.04491 0.627828,-0.08165 1.148039,-0.08165 0.896416,0 0.949933,0.01717 1.024222,0.328636 0.119405,0.500615 -0.02552,0.61295 -0.790806,0.61295 h -0.702204 l 0.03864,0.706188 0.03864,0.706189 0.607195,0.041 c 0.578111,0.03904 0.607195,0.05997 0.607195,0.437165 0,0.385725 -0.01685,0.396166 -0.639153,0.396166 H 57.07362 v 0.800361 0.80036 l 0.735025,0.04034 c 0.722955,0.03968 0.735025,0.04697 0.735025,0.443877 v 0.403536 l -1.092613,0.03847 c -0.600935,0.02116 -1.13303,-0.0041 -1.182431,-0.05605 z"
       id="path24" />
  </g>
</svg>
